IntelOneMono-Medium-quadratic.ufo
<glyph name="exclam" format="2">
  <advance width="614"/>
  <unicode hex="0021"/>
  <outline>
    <contour>
      <point x="344" y="258" type="line"/>
      <point x="270" y="258" type="line"/>
      <point x="203" y="710" type="line"/>
      <point x="412" y="710" type="line"/>
    </contour>
    <contour>
      <point x="401" y="59" type="qcurve"/>
      <point x="401" y="22"/>
      <point x="352" y="-15"/>
      <point x="302" y="-15" type="qcurve"/>
      <point x="252" y="-15"/>
      <point x="205" y="21"/>
      <point x="205" y="60" type="qcurve"/>
      <point x="205" y="97"/>
      <point x="255" y="135"/>
      <point x="304" y="135" type="qcurve"/>
      <point x="355" y="135"/>
      <point x="401" y="99"/>
    </contour>
  </outline>
</glyph>
<glyph name="ampersand" format="2">
  <advance width="614"/>
  <unicode hex="0026"/>
  <outline>
    <contour>
      <point x="325" y="669" type="qcurve"/>
      <point x="351" y="669"/>
      <point x="422" y="661"/>
      <point x="476" y="652" type="qcurve"/>
      <point x="463" y="566" type="line"/>
      <point x="421" y="574"/>
      <point x="357" y="581"/>
      <point x="329" y="581" type="qcurve"/>
      <point x="292" y="581"/>
      <point x="249" y="549"/>
      <point x="249" y="521" type="qcurve"/>
      <point x="249" y="503"/>
      <point x="266" y="464"/>
      <point x="285" y="435" type="qcurve"/>
      <point x="401" y="262" type="line"/>
      <point x="472" y="423" type="line"/>
      <point x="556" y="390" type="line"/>
      <point x="459" y="185" type="line"/>
      <point x="586" y="-1" type="line"/>
      <point x="466" y="-1" type="line"/>
      <point x="402" y="94" type="line"/>
      <point x="366" y="35"/>
      <point x="288" y="-11"/>
      <point x="223" y="-11" type="qcurve"/>
      <point x="144" y="-11"/>
      <point x="50" y="85"/>
      <point x="50" y="168" type="qcurve"/>
      <point x="50" y="250"/>
      <point x="122" y="334"/>
      <point x="212" y="364" type="qcurve"/>
      <point x="206" y="373" type="line"/>
      <point x="173" y="421"/>
      <point x="147" y="486"/>
      <point x="147" y="519" type="qcurve"/>
      <point x="147" y="585"/>
      <point x="244" y="669"/>
    </contour>
    <contour>
      <point x="154" y="180" type="qcurve"/>
      <point x="154" y="133"/>
      <point x="199" y="83"/>
      <point x="241" y="83" type="qcurve"/>
      <point x="282" y="83"/>
      <point x="329" y="118"/>
      <point x="350" y="160" type="qcurve"/>
      <point x="257" y="298" type="line"/>
      <point x="198" y="278"/>
      <point x="154" y="233"/>
    </contour>
  </outline>
</glyph>
<glyph name="parenright" format="2">
  <advance width="614"/>
  <unicode hex="0029"/>
  <outline>
    <contour>
      <point x="506" y="332" type="qcurve"/>
      <point x="506" y="193"/>
      <point x="319" y="-50"/>
      <point x="135" y="-149" type="qcurve"/>
      <point x="77" y="-76" type="line"/>
      <point x="238" y="11"/>
      <point x="392" y="208"/>
      <point x="392" y="329" type="qcurve"/>
      <point x="392" y="450"/>
      <point x="238" y="647"/>
      <point x="77" y="734" type="qcurve"/>
      <point x="135" y="807" type="line"/>
      <point x="319" y="708"/>
      <point x="506" y="468"/>
    </contour>
  </outline>
</glyph>
<glyph name="asterisk" format="2">
  <advance width="614"/>
  <unicode hex="002A"/>
  <outline>
    <contour>
      <point x="191" y="157" type="qcurve"/>
      <point x="106" y="230" type="line"/>
      <point x="117" y="243"/>
      <point x="150" y="271"/>
      <point x="187" y="298" type="qcurve"/>
      <point x="226" y="325"/>
      <point x="264" y="357"/>
      <point x="278" y="372" type="qcurve"/>
      <point x="257" y="378"/>
      <point x="208" y="387"/>
      <point x="160" y="392" type="qcurve"/>
      <point x="116" y="397"/>
      <point x="75" y="405"/>
      <point x="59" y="410" type="qcurve"/>
      <point x="96" y="517" type="line"/>
      <point x="112" y="511"/>
      <point x="149" y="491"/>
      <point x="187" y="467" type="qcurve"/>
      <point x="227" y="441"/>
      <point x="269" y="418"/>
      <point x="289" y="410" type="qcurve"/>
      <point x="288" y="432"/>
      <point x="280" y="481"/>
      <point x="268" y="528" type="qcurve"/>
      <point x="258" y="572"/>
      <point x="251" y="613"/>
      <point x="251" y="630" type="qcurve"/>
      <point x="364" y="630" type="line"/>
      <point x="364" y="613"/>
      <point x="358" y="571"/>
      <point x="347" y="527" type="qcurve"/>
      <point x="336" y="480"/>
      <point x="328" y="431"/>
      <point x="327" y="410" type="qcurve"/>
      <point x="347" y="418"/>
      <point x="390" y="442"/>
      <point x="430" y="467" type="qcurve"/>
      <point x="467" y="492"/>
      <point x="503" y="511"/>
      <point x="519" y="517" type="qcurve"/>
      <point x="557" y="410" type="line"/>
      <point x="541" y="405"/>
      <point x="500" y="397"/>
      <point x="456" y="392" type="qcurve"/>
      <point x="408" y="387"/>
      <point x="359" y="378"/>
      <point x="338" y="372" type="qcurve"/>
      <point x="353" y="356"/>
      <point x="390" y="325"/>
      <point x="429" y="297" type="qcurve"/>
      <point x="466" y="271"/>
      <point x="499" y="243"/>
      <point x="510" y="230" type="qcurve"/>
      <point x="425" y="157" type="line"/>
      <point x="414" y="170"/>
      <point x="391" y="206"/>
      <point x="370" y="246" type="qcurve"/>
      <point x="348" y="288"/>
      <point x="322" y="330"/>
      <point x="308" y="347" type="qcurve"/>
      <point x="294" y="330"/>
      <point x="268" y="288"/>
      <point x="246" y="246" type="qcurve"/>
      <point x="225" y="206"/>
      <point x="202" y="170"/>
    </contour>
  </outline>
</glyph>
<glyph name="plus" format="2">
  <advance width="614"/>
  <unicode hex="002B"/>
  <outline>
    <contour>
      <point x="255" y="283" type="line"/>
      <point x="66" y="283" type="line"/>
      <point x="66" y="374" type="line"/>
      <point x="255" y="374" type="line"/>
      <point x="255" y="573" type="line"/>
      <point x="358" y="573" type="line"/>
      <point x="358" y="374" type="line"/>
      <point x="548" y="374" type="line"/>
      <point x="548" y="283" type="line"/>
      <point x="358" y="283" type="line"/>
      <point x="358" y="83" type="line"/>
      <point x="255" y="83" type="line"/>
    </contour>
  </outline>
</glyph>
<glyph name="comma" format="2">
  <advance width="614"/>
  <unicode hex="002C"/>
  <outline>
    <contour>
      <point x="220" y="-161" type="qcurve"/>
      <point x="114" y="-161" type="line"/>
      <point x="114" y="-159" type="line"/>
      <point x="185" y="-59"/>
      <point x="231" y="53"/>
      <point x="240" y="145" type="qcurve"/>
      <point x="412" y="145" type="line"/>
      <point x="395" y="44"/>
      <point x="317" y="-82"/>
    </contour>
  </outline>
</glyph>
<glyph name="hyphen" format="2">
  <advance width="614"/>
  <unicode hex="002D"/>
  <outline>
    <contour>
      <point x="120" y="223" type="line"/>
      <point x="120" y="333" type="line"/>
      <point x="494" y="333" type="line"/>
      <point x="494" y="223" type="line"/>
    </contour>
  </outline>
</glyph>
<glyph name="zero" format="2">
  <advance width="614"/>
  <unicode hex="0030"/>
  <outline>
    <contour>
      <point x="308" y="670" type="qcurve"/>
      <point x="426" y="670"/>
      <point x="548" y="496"/>
      <point x="548" y="328" type="qcurve"/>
      <point x="548" y="161"/>
      <point x="424" y="-15"/>
      <point x="306" y="-15" type="qcurve"/>
      <point x="188" y="-15"/>
      <point x="66" y="159"/>
      <point x="66" y="326" type="qcurve"/>
      <point x="66" y="493"/>
      <point x="191" y="670"/>
    </contour>
    <contour>
      <point x="307" y="573" type="qcurve"/>
      <point x="237" y="573"/>
      <point x="174" y="456"/>
      <point x="174" y="328" type="qcurve"/>
      <point x="174" y="314"/>
      <point x="175" y="285"/>
      <point x="176" y="262" type="qcurve"/>
      <point x="425" y="470" type="line"/>
      <point x="411" y="523"/>
      <point x="353" y="573"/>
    </contour>
    <contour>
      <point x="307" y="82" type="qcurve"/>
      <point x="377" y="82"/>
      <point x="440" y="199"/>
      <point x="440" y="326" type="qcurve"/>
      <point x="440" y="339"/>
      <point x="439" y="368"/>
      <point x="438" y="389" type="qcurve"/>
      <point x="190" y="182" type="line"/>
      <point x="204" y="131"/>
      <point x="262" y="82"/>
    </contour>
  </outline>
</glyph>
<glyph name="one" format="2">
  <advance width="614"/>
  <unicode hex="0031"/>
  <outline>
    <contour>
      <point x="533" y="0" type="line"/>
      <point x="106" y="0" type="line"/>
      <point x="106" y="94" type="line"/>
      <point x="269" y="94" type="line"/>
      <point x="269" y="517" type="line"/>
      <point x="105" y="434" type="line"/>
      <point x="105" y="545" type="line"/>
      <point x="345" y="666" type="line"/>
      <point x="382" y="666" type="line"/>
      <point x="382" y="94" type="line"/>
      <point x="533" y="94" type="line"/>
    </contour>
  </outline>
</glyph>
<glyph name="two" format="2">
  <advance width="614"/>
  <unicode hex="0032"/>
  <outline>
    <contour>
      <point x="551" y="0" type="line"/>
      <point x="79" y="0" type="line"/>
      <point x="79" y="83" type="line"/>
      <point x="280" y="285" type="line"/>
      <point x="361" y="366"/>
      <point x="417" y="446"/>
      <point x="417" y="485" type="qcurve"/>
      <point x="417" y="526"/>
      <point x="367" y="573"/>
      <point x="322" y="573" type="qcurve"/>
      <point x="278" y="573"/>
      <point x="198" y="526"/>
      <point x="125" y="458" type="qcurve"/>
      <point x="63" y="533" type="line"/>
      <point x="145" y="609"/>
      <point x="262" y="670"/>
      <point x="329" y="670" type="qcurve"/>
      <point x="420" y="670"/>
      <point x="531" y="571"/>
      <point x="531" y="489" type="qcurve"/>
      <point x="531" y="431"/>
      <point x="466" y="333"/>
      <point x="374" y="244" type="qcurve"/>
      <point x="223" y="97" type="line"/>
      <point x="223" y="94" type="line"/>
      <point x="551" y="94" type="line"/>
    </contour>
  </outline>
</glyph>
<glyph name="three" format="2">
  <advance width="614"/>
  <unicode hex="0033"/>
  <outline>
    <contour>
      <point x="367" y="561" type="line"/>
      <point x="73" y="561" type="line"/>
      <point x="73" y="655" type="line"/>
      <point x="512" y="655" type="line"/>
      <point x="512" y="581" type="line"/>
      <point x="333" y="394" type="line"/>
      <point x="333" y="392" type="line"/>
      <point x="430" y="391"/>
      <point x="542" y="294"/>
      <point x="542" y="218" type="qcurve"/>
      <point x="542" y="119"/>
      <point x="379" y="9"/>
      <point x="216" y="-2" type="qcurve"/>
      <point x="94" y="-10" type="line"/>
      <point x="84" y="92" type="line"/>
      <point x="205" y="101" type="line"/>
      <point x="320" y="109"/>
      <point x="427" y="165"/>
      <point x="427" y="218" type="qcurve"/>
      <point x="427" y="262"/>
      <point x="360" y="307"/>
      <point x="295" y="307" type="qcurve"/>
      <point x="273" y="307"/>
      <point x="226" y="302"/>
      <point x="198" y="297" type="qcurve"/>
      <point x="175" y="354" type="line"/>
      <point x="367" y="558" type="line"/>
    </contour>
  </outline>
</glyph>
<glyph name="four" format="2">
  <advance width="614"/>
  <unicode hex="0034"/>
  <outline>
    <contour>
      <point x="356" y="164" type="line"/>
      <point x="46" y="164" type="line"/>
      <point x="46" y="242" type="line"/>
      <point x="316" y="655" type="line"/>
      <point x="463" y="655" type="line"/>
      <point x="463" y="254" type="line"/>
      <point x="589" y="254" type="line"/>
      <point x="589" y="164" type="line"/>
      <point x="463" y="164" type="line"/>
      <point x="463" y="0" type="line"/>
      <point x="356" y="0" type="line"/>
    </contour>
    <contour>
      <point x="365" y="244" type="line"/>
      <point x="365" y="583" type="line"/>
      <point x="148" y="247" type="line"/>
      <point x="148" y="244" type="line"/>
    </contour>
  </outline>
</glyph>
<glyph name="six" format="2">
  <advance width="614"/>
  <unicode hex="0036"/>
  <outline>
    <contour>
      <point x="332" y="430" type="qcurve"/>
      <point x="432" y="430"/>
      <point x="546" y="315"/>
      <point x="546" y="214" type="qcurve"/>
      <point x="546" y="113"/>
      <point x="410" y="-15"/>
      <point x="303" y="-15" type="qcurve"/>
      <point x="199" y="-15"/>
      <point x="69" y="117"/>
      <point x="69" y="225" type="qcurve"/>
      <point x="69" y="321"/>
      <point x="147" y="476"/>
      <point x="242" y="569" type="qcurve"/>
      <point x="330" y="655" type="line"/>
      <point x="478" y="655" type="line"/>
      <point x="479" y="653" type="line"/>
      <point x="340" y="527" type="line"/>
      <point x="309" y="499"/>
      <point x="262" y="444"/>
      <point x="244" y="418" type="qcurve"/>
      <point x="265" y="424"/>
      <point x="309" y="430"/>
    </contour>
    <contour>
      <point x="203" y="337" type="qcurve"/>
      <point x="193" y="311"/>
      <point x="183" y="257"/>
      <point x="183" y="229" type="qcurve"/>
      <point x="183" y="160"/>
      <point x="250" y="77"/>
      <point x="305" y="77" type="qcurve"/>
      <point x="362" y="77"/>
      <point x="431" y="153"/>
      <point x="431" y="216" type="qcurve"/>
      <point x="431" y="280"/>
      <point x="363" y="351"/>
      <point x="302" y="351" type="qcurve"/>
      <point x="275" y="351"/>
      <point x="227" y="344"/>
    </contour>
  </outline>
</glyph>
<glyph name="equal" format="2">
  <advance width="614"/>
  <unicode hex="003D"/>
  <outline>
    <contour>
      <point x="527" y="387" type="line"/>
      <point x="87" y="387" type="line"/>
      <point x="87" y="478" type="line"/>
      <point x="527" y="478" type="line"/>
    </contour>
    <contour>
      <point x="527" y="179" type="line"/>
      <point x="87" y="179" type="line"/>
      <point x="87" y="270" type="line"/>
      <point x="527" y="270" type="line"/>
    </contour>
  </outline>
</glyph>
<glyph name="B" format="2">
  <advance width="614"/>
  <unicode hex="0042"/>
  <outline>
    <contour>
      <point x="88" y="0" type="line"/>
      <point x="88" y="655" type="line"/>
      <point x="337" y="655" type="line"/>
      <point x="437" y="655"/>
      <point x="540" y="577"/>
      <point x="540" y="502" type="qcurve"/>
      <point x="540" y="440"/>
      <point x="464" y="358"/>
      <point x="390" y="339" type="qcurve"/>
      <point x="390" y="335" type="line"/>
      <point x="476" y="323"/>
      <point x="569" y="234"/>
      <point x="569" y="164" type="qcurve"/>
      <point x="569" y="81"/>
      <point x="455" y="0"/>
      <point x="339" y="0" type="qcurve"/>
    </contour>
    <contour>
      <point x="427" y="481" type="qcurve"/>
      <point x="427" y="525"/>
      <point x="375" y="568"/>
      <point x="321" y="568" type="qcurve"/>
      <point x="199" y="568" type="line"/>
      <point x="199" y="369" type="line"/>
      <point x="287" y="374" type="line"/>
      <point x="355" y="377"/>
      <point x="427" y="433"/>
    </contour>
    <contour>
      <point x="456" y="178" type="qcurve"/>
      <point x="456" y="228"/>
      <point x="378" y="282"/>
      <point x="300" y="285" type="qcurve"/>
      <point x="199" y="290" type="line"/>
      <point x="199" y="86" type="line"/>
      <point x="334" y="86" type="line"/>
      <point x="395" y="86"/>
      <point x="456" y="132"/>
    </contour>
  </outline>
</glyph>
<glyph name="C" format="2">
  <advance width="614"/>
  <unicode hex="0043"/>
  <outline>
    <contour>
      <point x="329" y="-15" type="qcurve"/>
      <point x="198" y="-15"/>
      <point x="53" y="164"/>
      <point x="53" y="326" type="qcurve"/>
      <point x="53" y="478"/>
      <point x="218" y="670"/>
      <point x="348" y="670" type="qcurve"/>
      <point x="403" y="670"/>
      <point x="500" y="632"/>
      <point x="565" y="585" type="qcurve"/>
      <point x="512" y="504" type="line"/>
      <point x="461" y="543"/>
      <point x="388" y="576"/>
      <point x="350" y="576" type="qcurve"/>
      <point x="269" y="576"/>
      <point x="168" y="441"/>
      <point x="168" y="328" type="qcurve"/>
      <point x="168" y="209"/>
      <point x="261" y="79"/>
      <point x="344" y="79" type="qcurve"/>
      <point x="382" y="79"/>
      <point x="467" y="115"/>
      <point x="520" y="153" type="qcurve"/>
      <point x="571" y="76" type="line"/>
      <point x="508" y="30"/>
      <point x="389" y="-15"/>
    </contour>
  </outline>
</glyph>
<glyph name="F" format="2">
  <advance width="614"/>
  <unicode hex="0046"/>
  <outline>
    <contour>
      <point x="98" y="0" type="line"/>
      <point x="98" y="655" type="line"/>
      <point x="536" y="655" type="line"/>
      <point x="536" y="561" type="line"/>
      <point x="211" y="561" type="line"/>
      <point x="211" y="345" type="line"/>
      <point x="505" y="345" type="line"/>
      <point x="505" y="251" type="line"/>
      <point x="211" y="251" type="line"/>
      <point x="211" y="0" type="line"/>
    </contour>
  </outline>
</glyph>
<glyph name="G" format="2">
  <advance width="614"/>
  <unicode hex="0047"/>
  <outline>
    <contour>
      <point x="507" y="655" type="qcurve"/>
      <point x="498" y="562" type="line"/>
      <point x="469" y="567"/>
      <point x="428" y="570"/>
      <point x="405" y="570" type="qcurve"/>
      <point x="290" y="570"/>
      <point x="168" y="446"/>
      <point x="168" y="328" type="qcurve"/>
      <point x="168" y="199"/>
      <point x="269" y="79"/>
      <point x="376" y="79" type="qcurve"/>
      <point x="396" y="79"/>
      <point x="431" y="83"/>
      <point x="448" y="87" type="qcurve"/>
      <point x="448" y="274" type="line"/>
      <point x="310" y="274" type="line"/>
      <point x="310" y="362" type="line"/>
      <point x="555" y="362" type="line"/>
      <point x="555" y="12" type="line"/>
      <point x="504" y="-2"/>
      <point x="409" y="-15"/>
      <point x="364" y="-15" type="qcurve"/>
      <point x="209" y="-15"/>
      <point x="52" y="156"/>
      <point x="52" y="324" type="qcurve"/>
      <point x="52" y="484"/>
      <point x="236" y="665"/>
      <point x="399" y="665" type="qcurve"/>
      <point x="423" y="665"/>
      <point x="469" y="661"/>
    </contour>
  </outline>
</glyph>
<glyph name="H" format="2">
  <advance width="614"/>
  <unicode hex="0048"/>
  <outline>
    <contour>
      <point x="85" y="0" type="line"/>
      <point x="85" y="655" type="line"/>
      <point x="197" y="655" type="line"/>
      <point x="197" y="377" type="line"/>
      <point x="417" y="377" type="line"/>
      <point x="417" y="655" type="line"/>
      <point x="529" y="655" type="line"/>
      <point x="529" y="0" type="line"/>
      <point x="417" y="0" type="line"/>
      <point x="417" y="283" type="line"/>
      <point x="197" y="283" type="line"/>
      <point x="197" y="0" type="line"/>
    </contour>
  </outline>
</glyph>
<glyph name="J" format="2">
  <advance width="614"/>
  <unicode hex="004A"/>
  <outline>
    <contour>
      <point x="325" y="-13" type="qcurve"/>
      <point x="253" y="-13"/>
      <point x="131" y="50"/>
      <point x="41" y="130" type="qcurve"/>
      <point x="110" y="212" type="line"/>
      <point x="186" y="144"/>
      <point x="280" y="88"/>
      <point x="320" y="88" type="qcurve"/>
      <point x="368" y="88"/>
      <point x="415" y="143"/>
      <point x="415" y="198" type="qcurve"/>
      <point x="415" y="655" type="line"/>
      <point x="528" y="655" type="line"/>
      <point x="528" y="189" type="line"/>
      <point x="528" y="94"/>
      <point x="421" y="-13"/>
    </contour>
  </outline>
</glyph>
<glyph name="K" format="2">
  <advance width="614"/>
  <unicode hex="004B"/>
  <outline>
    <contour>
      <point x="88" y="655" type="line"/>
      <point x="201" y="655" type="line"/>
      <point x="201" y="340" type="line"/>
      <point x="454" y="655" type="line"/>
      <point x="589" y="655" type="line"/>
      <point x="589" y="653" type="line"/>
      <point x="327" y="337" type="line"/>
      <point x="597" y="2" type="line"/>
      <point x="597" y="0" type="line"/>
      <point x="454" y="0" type="line"/>
      <point x="201" y="318" type="line"/>
      <point x="201" y="0" type="line"/>
      <point x="88" y="0" type="line"/>
    </contour>
  </outline>
</glyph>
<glyph name="L" format="2">
  <advance width="614"/>
  <unicode hex="004C"/>
  <outline>
    <contour>
      <point x="93" y="0" type="line"/>
      <point x="93" y="655" type="line"/>
      <point x="206" y="655" type="line"/>
      <point x="206" y="93" type="line"/>
      <point x="548" y="93" type="line"/>
      <point x="548" y="0" type="line"/>
    </contour>
  </outline>
</glyph>
<glyph name="M" format="2">
  <advance width="614"/>
  <unicode hex="004D"/>
  <outline>
    <contour>
      <point x="415" y="655" type="line"/>
      <point x="528" y="655" type="line"/>
      <point x="556" y="0" type="line"/>
      <point x="451" y="0" type="line"/>
      <point x="435" y="513" type="line"/>
      <point x="317" y="173" type="line"/>
      <point x="296" y="173" type="line"/>
      <point x="177" y="508" type="line"/>
      <point x="161" y="0" type="line"/>
      <point x="58" y="0" type="line"/>
      <point x="86" y="655" type="line"/>
      <point x="202" y="655" type="line"/>
      <point x="309" y="357" type="line"/>
    </contour>
  </outline>
</glyph>
<glyph name="O" format="2">
  <advance width="614"/>
  <unicode hex="004F"/>
  <outline>
    <contour>
      <point x="308" y="670" type="qcurve"/>
      <point x="430" y="670"/>
      <point x="561" y="494"/>
      <point x="561" y="328" type="qcurve"/>
      <point x="561" y="163"/>
      <point x="428" y="-15"/>
      <point x="306" y="-15" type="qcurve"/>
      <point x="184" y="-15"/>
      <point x="53" y="161"/>
      <point x="53" y="326" type="qcurve"/>
      <point x="53" y="491"/>
      <point x="186" y="670"/>
    </contour>
    <contour>
      <point x="307" y="576" type="qcurve"/>
      <point x="236" y="576"/>
      <point x="168" y="454"/>
      <point x="168" y="328" type="qcurve"/>
      <point x="168" y="202"/>
      <point x="237" y="79"/>
      <point x="307" y="79" type="qcurve"/>
      <point x="378" y="79"/>
      <point x="446" y="201"/>
      <point x="446" y="326" type="qcurve"/>
      <point x="446" y="452"/>
      <point x="377" y="576"/>
    </contour>
  </outline>
</glyph>
<glyph name="T" format="2">
  <advance width="614"/>
  <unicode hex="0054"/>
  <outline>
    <contour>
      <point x="251" y="561" type="line"/>
      <point x="45" y="561" type="line"/>
      <point x="45" y="655" type="line"/>
      <point x="569" y="655" type="line"/>
      <point x="569" y="561" type="line"/>
      <point x="363" y="561" type="line"/>
      <point x="363" y="0" type="line"/>
      <point x="251" y="0" type="line"/>
    </contour>
  </outline>
</glyph>
<glyph name="U" format="2">
  <advance width="614"/>
  <unicode hex="0055"/>
  <outline>
    <contour>
      <point x="307" y="87" type="qcurve"/>
      <point x="369" y="87"/>
      <point x="429" y="157"/>
      <point x="429" y="229" type="qcurve"/>
      <point x="429" y="655" type="line"/>
      <point x="541" y="655" type="line"/>
      <point x="541" y="230" type="line"/>
      <point x="541" y="106"/>
      <point x="424" y="-15"/>
      <point x="304" y="-15" type="qcurve"/>
      <point x="188" y="-15"/>
      <point x="73" y="107"/>
      <point x="73" y="230" type="qcurve"/>
      <point x="73" y="655" type="line"/>
      <point x="186" y="655" type="line"/>
      <point x="186" y="229" type="line"/>
      <point x="186" y="158"/>
      <point x="246" y="87"/>
    </contour>
  </outline>
</glyph>
<glyph name="V" format="2">
  <advance width="614"/>
  <unicode hex="0056"/>
  <outline>
    <contour>
      <point x="239" y="0" type="line"/>
      <point x="35" y="655" type="line"/>
      <point x="152" y="655" type="line"/>
      <point x="310" y="128" type="line"/>
      <point x="468" y="655" type="line"/>
      <point x="579" y="655" type="line"/>
      <point x="376" y="0" type="line"/>
    </contour>
  </outline>
</glyph>
<glyph name="X" format="2">
  <advance width="614"/>
  <unicode hex="0058"/>
  <outline>
    <contour>
      <point x="157" y="0" type="line"/>
      <point x="35" y="0" type="line"/>
      <point x="243" y="335" type="line"/>
      <point x="49" y="655" type="line"/>
      <point x="177" y="655" type="line"/>
      <point x="307" y="422" type="line"/>
      <point x="438" y="655" type="line"/>
      <point x="562" y="655" type="line"/>
      <point x="368" y="339" type="line"/>
      <point x="579" y="0" type="line"/>
      <point x="449" y="0" type="line"/>
      <point x="304" y="254" type="line"/>
    </contour>
  </outline>
</glyph>
<glyph name="bracketleft" format="2">
  <advance width="614"/>
  <unicode hex="005B"/>
  <outline>
    <contour>
      <point x="533" y="-141" type="line"/>
      <point x="173" y="-141" type="line"/>
      <point x="173" y="792" type="line"/>
      <point x="533" y="792" type="line"/>
      <point x="533" y="699" type="line"/>
      <point x="286" y="699" type="line"/>
      <point x="286" y="-47" type="line"/>
      <point x="533" y="-47" type="line"/>
    </contour>
  </outline>
</glyph>
<glyph name="bracketright" format="2">
  <advance width="614"/>
  <unicode hex="005D"/>
  <outline>
    <contour>
      <point x="328" y="699" type="line"/>
      <point x="81" y="699" type="line"/>
      <point x="81" y="792" type="line"/>
      <point x="441" y="792" type="line"/>
      <point x="441" y="-141" type="line"/>
      <point x="81" y="-141" type="line"/>
      <point x="81" y="-47" type="line"/>
      <point x="328" y="-47" type="line"/>
    </contour>
  </outline>
</glyph>
<glyph name="h" format="2">
  <advance width="614"/>
  <unicode hex="0068"/>
  <outline>
    <contour>
      <point x="88" y="710" type="line"/>
      <point x="200" y="710" type="line"/>
      <point x="200" y="384" type="line"/>
      <point x="258" y="436"/>
      <point x="345" y="479"/>
      <point x="391" y="479" type="qcurve"/>
      <point x="460" y="479"/>
      <point x="530" y="402"/>
      <point x="530" y="325" type="qcurve"/>
      <point x="530" y="0" type="line"/>
      <point x="418" y="0" type="line"/>
      <point x="418" y="305" type="line"/>
      <point x="418" y="341"/>
      <point x="387" y="375"/>
      <point x="354" y="375" type="qcurve"/>
      <point x="326" y="375"/>
      <point x="256" y="334"/>
      <point x="200" y="284" type="qcurve"/>
      <point x="200" y="0" type="line"/>
      <point x="88" y="0" type="line"/>
    </contour>
  </outline>
</glyph>
<glyph name="i" format="2">
  <advance width="614"/>
  <unicode hex="0069"/>
  <outline>
    <contour>
      <point x="403" y="665" type="qcurve"/>
      <point x="403" y="631"/>
      <point x="356" y="592"/>
      <point x="314" y="592" type="qcurve"/>
      <point x="273" y="592"/>
      <point x="227" y="631"/>
      <point x="227" y="666" type="qcurve"/>
      <point x="227" y="699"/>
      <point x="276" y="740"/>
      <point x="315" y="740" type="qcurve"/>
      <point x="357" y="740"/>
      <point x="403" y="701"/>
    </contour>
    <contour>
      <point x="104" y="0" type="line"/>
      <point x="104" y="95" type="line"/>
      <point x="266" y="95" type="line"/>
      <point x="266" y="376" type="line"/>
      <point x="124" y="376" type="line"/>
      <point x="124" y="471" type="line"/>
      <point x="378" y="471" type="line"/>
      <point x="378" y="95" type="line"/>
      <point x="541" y="95" type="line"/>
      <point x="541" y="0" type="line"/>
    </contour>
  </outline>
</glyph>
<glyph name="j" format="2">
  <advance width="614"/>
  <unicode hex="006A"/>
  <outline>
    <contour>
      <point x="464" y="664" type="qcurve"/>
      <point x="464" y="630"/>
      <point x="416" y="592"/>
      <point x="375" y="592" type="qcurve"/>
      <point x="335" y="592"/>
      <point x="289" y="630"/>
      <point x="289" y="664" type="qcurve"/>
      <point x="289" y="696"/>
      <point x="337" y="736"/>
      <point x="377" y="736" type="qcurve"/>
      <point x="419" y="736"/>
      <point x="464" y="699"/>
    </contour>
    <contour>
      <point x="440" y="471" type="line"/>
      <point x="440" y="-24" type="line"/>
      <point x="440" y="-133"/>
      <point x="352" y="-224"/>
      <point x="237" y="-230" type="qcurve"/>
      <point x="104" y="-237" type="line"/>
      <point x="100" y="-141" type="line"/>
      <point x="229" y="-132" type="line"/>
      <point x="284" y="-128"/>
      <point x="328" y="-83"/>
      <point x="328" y="-31" type="qcurve"/>
      <point x="328" y="376" type="line"/>
      <point x="113" y="376" type="line"/>
      <point x="113" y="471" type="line"/>
    </contour>
  </outline>
</glyph>
<glyph name="k" format="2">
  <advance width="614"/>
  <unicode hex="006B"/>
  <outline>
    <contour>
      <point x="98" y="710" type="line"/>
      <point x="210" y="710" type="line"/>
      <point x="210" y="259" type="line"/>
      <point x="427" y="471" type="line"/>
      <point x="568" y="471" type="line"/>
      <point x="568" y="469" type="line"/>
      <point x="327" y="245" type="line"/>
      <point x="570" y="2" type="line"/>
      <point x="570" y="0" type="line"/>
      <point x="423" y="0" type="line"/>
      <point x="210" y="224" type="line"/>
      <point x="210" y="0" type="line"/>
      <point x="98" y="0" type="line"/>
    </contour>
  </outline>
</glyph>
<glyph name="m" format="2">
  <advance width="614"/>
  <unicode hex="006D"/>
  <outline>
    <contour>
      <point x="47" y="471" type="line"/>
      <point x="127" y="471" type="line"/>
      <point x="138" y="372" type="line"/>
      <point x="151" y="372" type="line"/>
      <point x="185" y="427"/>
      <point x="245" y="475"/>
      <point x="282" y="475" type="qcurve"/>
      <point x="319" y="475"/>
      <point x="353" y="431"/>
      <point x="353" y="384" type="qcurve"/>
      <point x="353" y="375" type="line"/>
      <point x="369" y="375" type="line"/>
      <point x="404" y="430"/>
      <point x="458" y="475"/>
      <point x="494" y="475" type="qcurve"/>
      <point x="533" y="475"/>
      <point x="569" y="428"/>
      <point x="569" y="376" type="qcurve"/>
      <point x="569" y="0" type="line"/>
      <point x="471" y="0" type="line"/>
      <point x="471" y="323" type="line"/>
      <point x="471" y="342"/>
      <point x="455" y="359"/>
      <point x="438" y="359" type="qcurve"/>
      <point x="421" y="359"/>
      <point x="383" y="331"/>
      <point x="355" y="300" type="qcurve"/>
      <point x="355" y="0" type="line"/>
      <point x="263" y="0" type="line"/>
      <point x="263" y="325" type="line"/>
      <point x="263" y="343"/>
      <point x="247" y="359"/>
      <point x="230" y="359" type="qcurve"/>
      <point x="213" y="359"/>
      <point x="174" y="331"/>
      <point x="146" y="299" type="qcurve"/>
      <point x="146" y="0" type="line"/>
      <point x="47" y="0" type="line"/>
    </contour>
  </outline>
</glyph>
<glyph name="o" format="2">
  <advance width="614"/>
  <unicode hex="006F"/>
  <outline>
    <contour>
      <point x="558" y="235" type="qcurve"/>
      <point x="558" y="125"/>
      <point x="416" y="-15"/>
      <point x="305" y="-15" type="qcurve"/>
      <point x="194" y="-15"/>
      <point x="56" y="124"/>
      <point x="56" y="236" type="qcurve"/>
      <point x="56" y="345"/>
      <point x="198" y="486"/>
      <point x="309" y="486" type="qcurve"/>
      <point x="419" y="486"/>
      <point x="558" y="346"/>
    </contour>
    <contour>
      <point x="172" y="236" type="qcurve"/>
      <point x="172" y="162"/>
      <point x="244" y="78"/>
      <point x="307" y="78" type="qcurve"/>
      <point x="371" y="78"/>
      <point x="442" y="160"/>
      <point x="442" y="235" type="qcurve"/>
      <point x="442" y="308"/>
      <point x="370" y="392"/>
      <point x="307" y="392" type="qcurve"/>
      <point x="244" y="392"/>
      <point x="172" y="309"/>
    </contour>
  </outline>
</glyph>
<glyph name="r" format="2">
  <advance width="614"/>
  <unicode hex="0072"/>
  <outline>
    <contour>
      <point x="53" y="0" type="line"/>
      <point x="53" y="95" type="line"/>
      <point x="166" y="95" type="line"/>
      <point x="166" y="376" type="line"/>
      <point x="73" y="376" type="line"/>
      <point x="73" y="471" type="line"/>
      <point x="265" y="471" type="line"/>
      <point x="271" y="323" type="line"/>
      <point x="330" y="402"/>
      <point x="408" y="464"/>
      <point x="464" y="468" type="qcurve"/>
      <point x="557" y="475" type="line"/>
      <point x="565" y="362" type="line"/>
      <point x="475" y="355" type="line"/>
      <point x="441" y="352"/>
      <point x="395" y="341"/>
      <point x="374" y="326" type="qcurve"/>
      <point x="355" y="313"/>
      <point x="311" y="268"/>
      <point x="278" y="232" type="qcurve"/>
      <point x="278" y="95" type="line"/>
      <point x="417" y="95" type="line"/>
      <point x="417" y="0" type="line"/>
    </contour>
  </outline>
</glyph>
<glyph name="s" format="2">
  <advance width="614"/>
  <unicode hex="0073"/>
  <outline>
    <contour>
      <point x="530" y="136" type="qcurve"/>
      <point x="530" y="67"/>
      <point x="403" y="-13"/>
      <point x="291" y="-13" type="qcurve"/>
      <point x="240" y="-13"/>
      <point x="145" y="-4"/>
      <point x="87" y="6" type="qcurve"/>
      <point x="99" y="98" type="line"/>
      <point x="154" y="88"/>
      <point x="259" y="76"/>
      <point x="294" y="76" type="qcurve"/>
      <point x="356" y="76"/>
      <point x="416" y="103"/>
      <point x="416" y="130" type="qcurve"/>
      <point x="416" y="152"/>
      <point x="383" y="176"/>
      <point x="341" y="186" type="qcurve"/>
      <point x="246" y="206" type="line"/>
      <point x="164" y="224"/>
      <point x="96" y="283"/>
      <point x="96" y="342" type="qcurve"/>
      <point x="96" y="411"/>
      <point x="213" y="484"/>
      <point x="327" y="484" type="qcurve"/>
      <point x="363" y="484"/>
      <point x="461" y="475"/>
      <point x="506" y="467" type="qcurve"/>
      <point x="495" y="375" type="line"/>
      <point x="445" y="384"/>
      <point x="356" y="394"/>
      <point x="324" y="394" type="qcurve"/>
      <point x="265" y="394"/>
      <point x="210" y="373"/>
      <point x="210" y="349" type="qcurve"/>
      <point x="210" y="328"/>
      <point x="241" y="307"/>
      <point x="283" y="296" type="qcurve"/>
      <point x="376" y="276" type="line"/>
      <point x="461" y="257"/>
      <point x="530" y="197"/>
    </contour>
  </outline>
</glyph>
<glyph name="y" format="2">
  <advance width="614"/>
  <unicode hex="0079"/>
  <outline>
    <contour>
      <point x="570" y="471" type="line"/>
      <point x="331" y="-109" type="line"/>
      <point x="304" y="-174"/>
      <point x="234" y="-226"/>
      <point x="164" y="-229" type="qcurve"/>
      <point x="42" y="-235" type="line"/>
      <point x="39" y="-139" type="line"/>
      <point x="132" y="-134" type="line"/>
      <point x="177" y="-133"/>
      <point x="215" y="-112"/>
      <point x="227" y="-82" type="qcurve"/>
      <point x="252" y="-24" type="line"/>
      <point x="47" y="471" type="line"/>
      <point x="171" y="471" type="line"/>
      <point x="312" y="106" type="line"/>
      <point x="450" y="471" type="line"/>
    </contour>
  </outline>
</glyph>
<glyph name="z" format="2">
  <advance width="614"/>
  <unicode hex="007A"/>
  <outline>
    <contour>
      <point x="539" y="0" type="line"/>
      <point x="82" y="0" type="line"/>
      <point x="82" y="77" type="line"/>
      <point x="371" y="379" type="line"/>
      <point x="371" y="382" type="line"/>
      <point x="94" y="382" type="line"/>
      <point x="94" y="471" type="line"/>
      <point x="523" y="471" type="line"/>
      <point x="523" y="393" type="line"/>
      <point x="237" y="92" type="line"/>
      <point x="237" y="89" type="line"/>
      <point x="539" y="89" type="line"/>
    </contour>
  </outline>
</glyph>
<glyph name="asciitilde" format="2">
  <advance width="614"/>
  <unicode hex="007E"/>
  <outline>
    <contour>
      <point x="490" y="456" type="qcurve"/>
      <point x="577" y="430" type="line"/>
      <point x="540" y="309"/>
      <point x="475" y="213"/>
      <point x="423" y="213" type="qcurve"/>
      <point x="399" y="213"/>
      <point x="353" y="237"/>
      <point x="292" y="284" type="qcurve"/>
      <point x="243" y="321"/>
      <point x="209" y="343"/>
      <point x="196" y="343" type="qcurve"/>
      <point x="182" y="343"/>
      <point x="156" y="293"/>
      <point x="124" y="207" type="qcurve"/>
      <point x="37" y="233" type="line"/>
      <point x="74" y="354"/>
      <point x="139" y="449"/>
      <point x="191" y="449" type="qcurve"/>
      <point x="214" y="449"/>
      <point x="258" y="426"/>
      <point x="322" y="378" type="qcurve"/>
      <point x="371" y="341"/>
      <point x="405" y="319"/>
      <point x="418" y="319" type="qcurve"/>
      <point x="432" y="319"/>
      <point x="458" y="369"/>
    </contour>
  </outline>
</glyph>
<glyph name="cent" format="2">
  <advance width="614"/>
  <unicode hex="00A2"/>
  <outline>
    <contour>
      <point x="376" y="-142" type="line"/>
      <point x="298" y="-142" type="line"/>
      <point x="298" y="0" type="line"/>
      <point x="190" y="5"/>
      <point x="62" y="140"/>
      <point x="62" y="248" type="qcurve"/>
      <point x="62" y="342"/>
      <point x="196" y="479"/>
      <point x="298" y="489" type="qcurve"/>
      <point x="298" y="632" type="line"/>
      <point x="376" y="632" type="line"/>
      <point x="376" y="487" type="line"/>
      <point x="416" y="482"/>
      <point x="498" y="448"/>
      <point x="548" y="416" type="qcurve"/>
      <point x="496" y="334" type="line"/>
      <point x="448" y="367"/>
      <point x="374" y="395"/>
      <point x="331" y="395" type="qcurve"/>
      <point x="264" y="395"/>
      <point x="179" y="312"/>
      <point x="179" y="247" type="qcurve"/>
      <point x="179" y="179"/>
      <point x="259" y="95"/>
      <point x="322" y="95" type="qcurve"/>
      <point x="365" y="95"/>
      <point x="447" y="121"/>
      <point x="502" y="151" type="qcurve"/>
      <point x="551" y="75" type="line"/>
      <point x="500" y="44"/>
      <point x="416" y="10"/>
      <point x="376" y="4" type="qcurve"/>
    </contour>
  </outline>
</glyph>
<glyph name="yen" format="2">
  <advance width="614"/>
  <unicode hex="00A5"/>
  <outline>
    <contour>
      <point x="254" y="130" type="line"/>
      <point x="79" y="130" type="line"/>
      <point x="79" y="195" type="line"/>
      <point x="254" y="195" type="line"/>
      <point x="254" y="280" type="line"/>
      <point x="79" y="280" type="line"/>
      <point x="79" y="345" type="line"/>
      <point x="233" y="345" type="line"/>
      <point x="29" y="655" type="line"/>
      <point x="156" y="655" type="line"/>
      <point x="308" y="402" type="line"/>
      <point x="462" y="655" type="line"/>
      <point x="585" y="655" type="line"/>
      <point x="380" y="345" type="line"/>
      <point x="534" y="345" type="line"/>
      <point x="534" y="280" type="line"/>
      <point x="358" y="280" type="line"/>
      <point x="358" y="195" type="line"/>
      <point x="534" y="195" type="line"/>
      <point x="534" y="130" type="line"/>
      <point x="358" y="130" type="line"/>
      <point x="358" y="0" type="line"/>
      <point x="254" y="0" type="line"/>
    </contour>
  </outline>
</glyph>
<glyph name="ordfeminine" format="2">
  <advance width="614"/>
  <unicode hex="00AA"/>
  <outline>
    <contour>
      <point x="459" y="573" type="qcurve"/>
      <point x="459" y="431" type="line"/>
      <point x="459" y="412"/>
      <point x="472" y="397"/>
      <point x="487" y="396" type="qcurve"/>
      <point x="518" y="393" type="line"/>
      <point x="512" y="328" type="line"/>
      <point x="465" y="330" type="line"/>
      <point x="430" y="331"/>
      <point x="387" y="354"/>
      <point x="378" y="377" type="qcurve"/>
      <point x="368" y="377" type="line"/>
      <point x="336" y="351"/>
      <point x="261" y="325"/>
      <point x="218" y="325" type="qcurve"/>
      <point x="165" y="325"/>
      <point x="103" y="379"/>
      <point x="103" y="427" type="qcurve"/>
      <point x="103" y="482"/>
      <point x="164" y="534"/>
      <point x="236" y="541" type="qcurve"/>
      <point x="374" y="555" type="line"/>
      <point x="374" y="573" type="line"/>
      <point x="374" y="601"/>
      <point x="333" y="621"/>
      <point x="281" y="621" type="qcurve"/>
      <point x="260" y="621"/>
      <point x="189" y="614"/>
      <point x="146" y="608" type="qcurve"/>
      <point x="138" y="679" type="line"/>
      <point x="183" y="685"/>
      <point x="261" y="692"/>
      <point x="285" y="692" type="qcurve"/>
      <point x="379" y="692"/>
      <point x="459" y="638"/>
    </contour>
    <contour>
      <point x="190" y="432" type="qcurve"/>
      <point x="190" y="413"/>
      <point x="216" y="393"/>
      <point x="240" y="393" type="qcurve"/>
      <point x="273" y="393"/>
      <point x="336" y="418"/>
      <point x="374" y="446" type="qcurve"/>
      <point x="374" y="499" type="line"/>
      <point x="258" y="484" type="line"/>
      <point x="221" y="480"/>
      <point x="190" y="457"/>
    </contour>
    <contour>
      <point x="122" y="171" type="line"/>
      <point x="122" y="238" type="line"/>
      <point x="504" y="238" type="line"/>
      <point x="504" y="171" type="line"/>
    </contour>
  </outline>
</glyph>
<glyph name="guillemetleft" format="2">
  <advance width="614"/>
  <unicode hex="00AB"/>
  <outline>
    <contour>
      <point x="289" y="89" type="line"/>
      <point x="289" y="-15" type="line"/>
      <point x="57" y="189" type="line"/>
      <point x="57" y="281" type="line"/>
      <point x="289" y="484" type="line"/>
      <point x="289" y="383" type="line"/>
      <point x="155" y="238" type="line"/>
    </contour>
    <contour>
      <point x="545" y="89" type="line"/>
      <point x="545" y="-15" type="line"/>
      <point x="313" y="189" type="line"/>
      <point x="313" y="281" type="line"/>
      <point x="545" y="484" type="line"/>
      <point x="545" y="383" type="line"/>
      <point x="412" y="238" type="line"/>
    </contour>
  </outline>
</glyph>
<glyph name="registered" format="2">
  <advance width="614"/>
  <unicode hex="00AE"/>
  <outline>
    <contour>
      <point x="307" y="208" type="qcurve"/>
      <point x="198" y="208"/>
      <point x="68" y="348"/>
      <point x="68" y="465" type="qcurve"/>
      <point x="68" y="584"/>
      <point x="197" y="725"/>
      <point x="307" y="725" type="qcurve"/>
      <point x="417" y="725"/>
      <point x="546" y="586"/>
      <point x="546" y="467" type="qcurve"/>
      <point x="546" y="350"/>
      <point x="415" y="208"/>
    </contour>
    <contour>
      <point x="108" y="467" type="qcurve"/>
      <point x="108" y="364"/>
      <point x="216" y="243"/>
      <point x="307" y="243" type="qcurve"/>
      <point x="400" y="243"/>
      <point x="507" y="362"/>
      <point x="507" y="465" type="qcurve"/>
      <point x="507" y="569"/>
      <point x="400" y="689"/>
      <point x="307" y="689" type="qcurve"/>
      <point x="215" y="689"/>
      <point x="108" y="570"/>
    </contour>
    <contour>
      <point x="369" y="416" type="qcurve"/>
      <point x="424" y="345" type="line"/>
      <point x="424" y="343" type="line"/>
      <point x="356" y="343" type="line"/>
      <point x="311" y="409" type="line"/>
      <point x="299" y="426"/>
      <point x="283" y="439"/>
      <point x="271" y="442" type="qcurve"/>
      <point x="271" y="343" type="line"/>
      <point x="217" y="343" type="line"/>
      <point x="217" y="604" type="line"/>
      <point x="323" y="604" type="line"/>
      <point x="365" y="604"/>
      <point x="410" y="566"/>
      <point x="410" y="531" type="qcurve"/>
      <point x="410" y="497"/>
      <point x="369" y="461"/>
      <point x="325" y="454" type="qcurve"/>
      <point x="325" y="452" type="line"/>
      <point x="341" y="445"/>
      <point x="359" y="429"/>
    </contour>
    <contour>
      <point x="355" y="526" type="qcurve"/>
      <point x="355" y="543"/>
      <point x="334" y="560"/>
      <point x="314" y="560" type="qcurve"/>
      <point x="271" y="560" type="line"/>
      <point x="271" y="480" type="line"/>
      <point x="283" y="481" type="line"/>
      <point x="322" y="486"/>
      <point x="355" y="506"/>
    </contour>
  </outline>
</glyph>
<glyph name="paragraph" format="2">
  <advance width="614"/>
  <unicode hex="00B6"/>
  <outline>
    <contour>
      <point x="315" y="599" type="line"/>
      <point x="315" y="273" type="line"/>
      <point x="311" y="273" type="line"/>
      <point x="192" y="273"/>
      <point x="65" y="381"/>
      <point x="65" y="481" type="qcurve"/>
      <point x="65" y="584"/>
      <point x="192" y="686"/>
      <point x="320" y="686" type="qcurve"/>
      <point x="528" y="686" type="line"/>
      <point x="528" y="0" type="line"/>
      <point x="416" y="0" type="line"/>
      <point x="416" y="599" type="line"/>
    </contour>
  </outline>
</glyph>
<glyph name="ordmasculine" format="2">
  <advance width="614"/>
  <unicode hex="00BA"/>
  <outline>
    <contour>
      <point x="499" y="509" type="qcurve"/>
      <point x="499" y="428"/>
      <point x="389" y="324"/>
      <point x="305" y="324" type="qcurve"/>
      <point x="221" y="324"/>
      <point x="113" y="427"/>
      <point x="113" y="508" type="qcurve"/>
      <point x="113" y="588"/>
      <point x="223" y="692"/>
      <point x="308" y="692" type="qcurve"/>
      <point x="391" y="692"/>
      <point x="499" y="589"/>
    </contour>
    <contour>
      <point x="202" y="508" type="qcurve"/>
      <point x="202" y="457"/>
      <point x="258" y="398"/>
      <point x="306" y="398" type="qcurve"/>
      <point x="354" y="398"/>
      <point x="410" y="457"/>
      <point x="410" y="508" type="qcurve"/>
      <point x="410" y="559"/>
      <point x="354" y="618"/>
      <point x="306" y="618" type="qcurve"/>
      <point x="258" y="618"/>
      <point x="202" y="559"/>
    </contour>
    <contour>
      <point x="122" y="171" type="line"/>
      <point x="122" y="238" type="line"/>
      <point x="500" y="238" type="line"/>
      <point x="500" y="171" type="line"/>
    </contour>
  </outline>
</glyph>
<glyph name="guillemetright" format="2">
  <advance width="614"/>
  <unicode hex="00BB"/>
  <outline>
    <contour>
      <point x="325" y="380" type="line"/>
      <point x="325" y="484" type="line"/>
      <point x="557" y="280" type="line"/>
      <point x="557" y="188" type="line"/>
      <point x="325" y="-15" type="line"/>
      <point x="325" y="86" type="line"/>
      <point x="459" y="231" type="line"/>
    </contour>
    <contour>
      <point x="69" y="380" type="line"/>
      <point x="69" y="484" type="line"/>
      <point x="301" y="280" type="line"/>
      <point x="301" y="188" type="line"/>
      <point x="69" y="-15" type="line"/>
      <point x="69" y="86" type="line"/>
      <point x="202" y="231" type="line"/>
    </contour>
  </outline>
</glyph>
<glyph name="questiondown" format="2">
  <advance width="614"/>
  <unicode hex="00BF"/>
  <outline>
    <contour>
      <point x="269" y="651" type="qcurve"/>
      <point x="269" y="689"/>
      <point x="318" y="725"/>
      <point x="368" y="725" type="qcurve"/>
      <point x="418" y="725"/>
      <point x="465" y="689"/>
      <point x="465" y="650" type="qcurve"/>
      <point x="465" y="613"/>
      <point x="415" y="575"/>
      <point x="366" y="575" type="qcurve"/>
      <point x="315" y="575"/>
      <point x="269" y="611"/>
    </contour>
    <contour>
      <point x="324" y="452" type="qcurve"/>
      <point x="399" y="452" type="line"/>
      <point x="408" y="411"/>
      <point x="415" y="366"/>
      <point x="415" y="351" type="qcurve"/>
      <point x="415" y="332"/>
      <point x="391" y="307"/>
      <point x="358" y="291" type="qcurve"/>
      <point x="276" y="251" type="line"/>
      <point x="224" y="225"/>
      <point x="187" y="189"/>
      <point x="187" y="160" type="qcurve"/>
      <point x="187" y="120"/>
      <point x="242" y="79"/>
      <point x="296" y="79" type="qcurve"/>
      <point x="341" y="79"/>
      <point x="453" y="103"/>
      <point x="531" y="129" type="qcurve"/>
      <point x="553" y="32" type="line"/>
      <point x="464" y="5"/>
      <point x="349" y="-15"/>
      <point x="285" y="-15" type="qcurve"/>
      <point x="180" y="-15"/>
      <point x="72" y="74"/>
      <point x="72" y="160" type="qcurve"/>
      <point x="72" y="215"/>
      <point x="126" y="285"/>
      <point x="203" y="324" type="qcurve"/>
      <point x="278" y="360" type="line"/>
      <point x="302" y="372"/>
      <point x="316" y="401"/>
    </contour>
  </outline>
</glyph>
<glyph name="Aring" format="2">
  <advance width="614"/>
  <unicode hex="00C5"/>
  <outline>
    <contour>
      <point x="195" y="155" type="line"/>
      <point x="147" y="0" type="line"/>
      <point x="35" y="0" type="line"/>
      <point x="216" y="586" type="line"/>
      <point x="181" y="602"/>
      <point x="144" y="659"/>
      <point x="144" y="696" type="qcurve"/>
      <point x="144" y="754"/>
      <point x="232" y="823"/>
      <point x="307" y="823" type="qcurve"/>
      <point x="381" y="823"/>
      <point x="468" y="755"/>
      <point x="468" y="697" type="qcurve"/>
      <point x="468" y="661"/>
      <point x="431" y="604"/>
      <point x="397" y="588" type="qcurve"/>
      <point x="579" y="0" type="line"/>
      <point x="461" y="0" type="line"/>
      <point x="413" y="155" type="line"/>
    </contour>
    <contour>
      <point x="223" y="695" type="qcurve"/>
      <point x="223" y="665"/>
      <point x="265" y="634"/>
      <point x="306" y="634" type="qcurve"/>
      <point x="348" y="634"/>
      <point x="389" y="666"/>
      <point x="389" y="698" type="qcurve"/>
      <point x="389" y="728"/>
      <point x="347" y="759"/>
      <point x="306" y="759" type="qcurve"/>
      <point x="264" y="759"/>
      <point x="223" y="728"/>
    </contour>
    <contour>
      <point x="304" y="538" type="line"/>
      <point x="219" y="244" type="line"/>
      <point x="388" y="244" type="line"/>
    </contour>
  </outline>
</glyph>
<glyph name="AE" format="2">
  <advance width="614"/>
  <unicode hex="00C6"/>
  <outline>
    <contour>
      <point x="148" y="164" type="line"/>
      <point x="98" y="0" type="line"/>
      <point x="-4" y="0" type="line"/>
      <point x="205" y="655" type="line"/>
      <point x="580" y="655" type="line"/>
      <point x="580" y="566" type="line"/>
      <point x="401" y="566" type="line"/>
      <point x="401" y="374" type="line"/>
      <point x="561" y="374" type="line"/>
      <point x="561" y="287" type="line"/>
      <point x="401" y="287" type="line"/>
      <point x="401" y="89" type="line"/>
      <point x="580" y="89" type="line"/>
      <point x="580" y="0" type="line"/>
      <point x="294" y="0" type="line"/>
      <point x="294" y="164" type="line"/>
    </contour>
    <contour>
      <point x="269" y="566" type="line"/>
      <point x="173" y="247" type="line"/>
      <point x="294" y="247" type="line"/>
      <point x="294" y="566" type="line"/>
    </contour>
  </outline>
</glyph>
<glyph name="Ccedilla" format="2">
  <advance width="614"/>
  <unicode hex="00C7"/>
  <outline>
    <contour>
      <point x="493" y="-152" type="qcurve"/>
      <point x="493" y="-192"/>
      <point x="446" y="-235"/>
      <point x="392" y="-248" type="qcurve"/>
      <point x="364" y="-255"/>
      <point x="288" y="-266"/>
      <point x="239" y="-270" type="qcurve"/>
      <point x="222" y="-209" type="line"/>
      <point x="331" y="-199"/>
      <point x="414" y="-177"/>
      <point x="414" y="-154" type="qcurve"/>
      <point x="414" y="-134"/>
      <point x="352" y="-117"/>
      <point x="280" y="-114" type="qcurve"/>
      <point x="274" y="-104" type="line"/>
      <point x="305" y="-14" type="line"/>
      <point x="184" y="-6"/>
      <point x="53" y="171"/>
      <point x="53" y="326" type="qcurve"/>
      <point x="53" y="478"/>
      <point x="218" y="670"/>
      <point x="348" y="670" type="qcurve"/>
      <point x="403" y="670"/>
      <point x="500" y="632"/>
      <point x="565" y="585" type="qcurve"/>
      <point x="512" y="504" type="line"/>
      <point x="461" y="543"/>
      <point x="388" y="576"/>
      <point x="350" y="576" type="qcurve"/>
      <point x="269" y="576"/>
      <point x="168" y="441"/>
      <point x="168" y="328" type="qcurve"/>
      <point x="168" y="209"/>
      <point x="261" y="79"/>
      <point x="344" y="79" type="qcurve"/>
      <point x="382" y="79"/>
      <point x="467" y="115"/>
      <point x="520" y="153" type="qcurve"/>
      <point x="571" y="76" type="line"/>
      <point x="517" y="36"/>
      <point x="412" y="-9"/>
      <point x="360" y="-14" type="qcurve"/>
      <point x="344" y="-63" type="line"/>
      <point x="423" y="-71"/>
      <point x="493" y="-112"/>
    </contour>
  </outline>
</glyph>
<glyph name="Eth" format="2">
  <advance width="614"/>
  <unicode hex="00D0"/>
  <outline>
    <contour>
      <point x="106" y="298" type="line"/>
      <point x="26" y="298" type="line"/>
      <point x="26" y="362" type="line"/>
      <point x="106" y="362" type="line"/>
      <point x="106" y="655" type="line"/>
      <point x="199" y="655" type="line"/>
      <point x="375" y="655"/>
      <point x="565" y="489"/>
      <point x="565" y="335" type="qcurve"/>
      <point x="565" y="174"/>
      <point x="362" y="0"/>
      <point x="172" y="0" type="qcurve"/>
      <point x="106" y="0" type="line"/>
    </contour>
    <contour>
      <point x="323" y="362" type="line"/>
      <point x="323" y="298" type="line"/>
      <point x="216" y="298" type="line"/>
      <point x="216" y="92" type="line"/>
      <point x="335" y="98"/>
      <point x="453" y="218"/>
      <point x="453" y="333" type="qcurve"/>
      <point x="453" y="443"/>
      <point x="331" y="562"/>
      <point x="216" y="564" type="qcurve"/>
      <point x="216" y="362" type="line"/>
    </contour>
  </outline>
</glyph>
<glyph name="Thorn" format="2">
  <advance width="614"/>
  <unicode hex="00DE"/>
  <outline>
    <contour>
      <point x="88" y="0" type="line"/>
      <point x="88" y="655" type="line"/>
      <point x="201" y="655" type="line"/>
      <point x="201" y="516" type="line"/>
      <point x="341" y="516" type="line"/>
      <point x="450" y="516"/>
      <point x="572" y="417"/>
      <point x="572" y="329" type="qcurve"/>
      <point x="572" y="241"/>
      <point x="443" y="138"/>
      <point x="332" y="138" type="qcurve"/>
      <point x="201" y="138" type="line"/>
      <point x="201" y="0" type="line"/>
    </contour>
    <contour>
      <point x="458" y="327" type="qcurve"/>
      <point x="458" y="374"/>
      <point x="400" y="422"/>
      <point x="345" y="422" type="qcurve"/>
      <point x="201" y="422" type="line"/>
      <point x="201" y="230" type="line"/>
      <point x="339" y="230" type="line"/>
      <point x="396" y="230"/>
      <point x="458" y="281"/>
    </contour>
  </outline>
</glyph>
<glyph name="germandbls" format="2">
  <advance width="614"/>
  <unicode hex="00DF"/>
  <outline>
    <contour>
      <point x="448" y="153" type="qcurve"/>
      <point x="448" y="187"/>
      <point x="385" y="266"/>
      <point x="308" y="334" type="qcurve"/>
      <point x="308" y="382" type="line"/>
      <point x="364" y="445"/>
      <point x="413" y="523"/>
      <point x="413" y="559" type="qcurve"/>
      <point x="413" y="592"/>
      <point x="365" y="631"/>
      <point x="324" y="631" type="qcurve"/>
      <point x="263" y="631"/>
      <point x="197" y="557"/>
      <point x="197" y="488" type="qcurve"/>
      <point x="197" y="0" type="line"/>
      <point x="85" y="0" type="line"/>
      <point x="85" y="488" type="line"/>
      <point x="85" y="595"/>
      <point x="215" y="725"/>
      <point x="325" y="725" type="qcurve"/>
      <point x="419" y="725"/>
      <point x="528" y="639"/>
      <point x="528" y="568" type="qcurve"/>
      <point x="528" y="520"/>
      <point x="479" y="435"/>
      <point x="417" y="365" type="qcurve"/>
      <point x="498" y="294"/>
      <point x="565" y="199"/>
      <point x="565" y="143" type="qcurve"/>
      <point x="565" y="74"/>
      <point x="482" y="5"/>
      <point x="394" y="0" type="qcurve"/>
      <point x="322" y="-4" type="line"/>
      <point x="316" y="93" type="line"/>
      <point x="384" y="97" type="line"/>
      <point x="416" y="99"/>
      <point x="448" y="127"/>
    </contour>
  </outline>
</glyph>
<glyph name="ccedilla" format="2">
  <advance width="614"/>
  <unicode hex="00E7"/>
  <outline>
    <contour>
      <point x="332" y="390" type="qcurve"/>
      <point x="265" y="390"/>
      <point x="180" y="304"/>
      <point x="180" y="237" type="qcurve"/>
      <point x="180" y="167"/>
      <point x="261" y="80"/>
      <point x="324" y="80" type="qcurve"/>
      <point x="365" y="80"/>
      <point x="447" y="106"/>
      <point x="503" y="137" type="qcurve"/>
      <point x="552" y="60" type="line"/>
      <point x="487" y="22"/>
      <point x="384" y="-12"/>
      <point x="326" y="-14" type="qcurve"/>
      <point x="311" y="-63" type="line"/>
      <point x="390" y="-71"/>
      <point x="460" y="-112"/>
      <point x="460" y="-152" type="qcurve"/>
      <point x="460" y="-192"/>
      <point x="413" y="-235"/>
      <point x="359" y="-248" type="qcurve"/>
      <point x="331" y="-255"/>
      <point x="255" y="-266"/>
      <point x="206" y="-270" type="qcurve"/>
      <point x="189" y="-209" type="line"/>
      <point x="297" y="-199"/>
      <point x="380" y="-177"/>
      <point x="380" y="-154" type="qcurve"/>
      <point x="380" y="-134"/>
      <point x="319" y="-117"/>
      <point x="247" y="-114" type="qcurve"/>
      <point x="241" y="-104" type="line"/>
      <point x="273" y="-11" type="line"/>
      <point x="176" y="1"/>
      <point x="63" y="134"/>
      <point x="63" y="237" type="qcurve"/>
      <point x="63" y="341"/>
      <point x="216" y="484"/>
      <point x="328" y="484" type="qcurve"/>
      <point x="389" y="484"/>
      <point x="489" y="449"/>
      <point x="549" y="410" type="qcurve"/>
      <point x="497" y="329" type="line"/>
      <point x="447" y="362"/>
      <point x="374" y="390"/>
    </contour>
  </outline>
</glyph>
<glyph name="eth" format="2">
  <advance width="614"/>
  <unicode hex="00F0"/>
  <outline>
    <contour>
      <point x="324" y="676" type="qcurve"/>
      <point x="398" y="756" type="line"/>
      <point x="448" y="714" type="line"/>
      <point x="380" y="646" type="line"/>
      <point x="470" y="590"/>
      <point x="558" y="428"/>
      <point x="558" y="320" type="qcurve"/>
      <point x="558" y="164"/>
      <point x="413" y="-15"/>
      <point x="288" y="-15" type="qcurve"/>
      <point x="185" y="-15"/>
      <point x="56" y="110"/>
      <point x="56" y="211" type="qcurve"/>
      <point x="56" y="300"/>
      <point x="189" y="423"/>
      <point x="288" y="423" type="qcurve"/>
      <point x="333" y="423"/>
      <point x="407" y="405"/>
      <point x="443" y="386" type="qcurve"/>
      <point x="433" y="449"/>
      <point x="375" y="535"/>
      <point x="317" y="569" type="qcurve"/>
      <point x="227" y="471" type="line"/>
      <point x="179" y="513" type="line"/>
      <point x="261" y="597" type="line"/>
      <point x="238" y="608"/>
      <point x="186" y="625"/>
      <point x="152" y="633" type="qcurve"/>
      <point x="181" y="725" type="line"/>
      <point x="222" y="716"/>
      <point x="293" y="692"/>
    </contour>
    <contour>
      <point x="309" y="339" type="qcurve"/>
      <point x="245" y="339"/>
      <point x="172" y="270"/>
      <point x="172" y="211" type="qcurve"/>
      <point x="172" y="151"/>
      <point x="240" y="78"/>
      <point x="294" y="78" type="qcurve"/>
      <point x="363" y="78"/>
      <point x="442" y="192"/>
      <point x="445" y="301" type="qcurve"/>
      <point x="406" y="321"/>
      <point x="344" y="339"/>
    </contour>
  </outline>
</glyph>
<glyph name="oslash" format="2">
  <advance width="614"/>
  <unicode hex="00F8"/>
  <outline>
    <contour>
      <point x="558" y="235" type="qcurve"/>
      <point x="558" y="126"/>
      <point x="416" y="-15"/>
      <point x="305" y="-15" type="qcurve"/>
      <point x="277" y="-15"/>
      <point x="219" y="0"/>
      <point x="191" y="14" type="qcurve"/>
      <point x="136" y="-71" type="line"/>
      <point x="29" y="-71" type="line"/>
      <point x="131" y="59" type="line"/>
      <point x="95" y="95"/>
      <point x="56" y="187"/>
      <point x="56" y="236" type="qcurve"/>
      <point x="56" y="345"/>
      <point x="198" y="486"/>
      <point x="309" y="486" type="qcurve"/>
      <point x="339" y="486"/>
      <point x="395" y="471"/>
      <point x="422" y="457" type="qcurve"/>
      <point x="477" y="542" type="line"/>
      <point x="585" y="542" type="line"/>
      <point x="484" y="410" type="line"/>
      <point x="519" y="375"/>
      <point x="558" y="284"/>
    </contour>
    <contour>
      <point x="307" y="392" type="qcurve"/>
      <point x="244" y="392"/>
      <point x="172" y="309"/>
      <point x="172" y="236" type="qcurve"/>
      <point x="172" y="160"/>
      <point x="242" y="78"/>
      <point x="307" y="78" type="qcurve"/>
      <point x="370" y="78"/>
      <point x="442" y="161"/>
      <point x="442" y="235" type="qcurve"/>
      <point x="442" y="311"/>
      <point x="372" y="392"/>
    </contour>
  </outline>
</glyph>
<glyph name="thorn" format="2">
  <advance width="614"/>
  <unicode hex="00FE"/>
  <outline>
    <contour>
      <point x="197" y="-230" type="line"/>
      <point x="85" y="-230" type="line"/>
      <point x="85" y="710" type="line"/>
      <point x="197" y="710" type="line"/>
      <point x="197" y="406" type="line"/>
      <point x="235" y="445"/>
      <point x="312" y="480"/>
      <point x="359" y="480" type="qcurve"/>
      <point x="447" y="480"/>
      <point x="562" y="348"/>
      <point x="562" y="244" type="qcurve"/>
      <point x="562" y="135"/>
      <point x="432" y="-6"/>
      <point x="334" y="-6" type="qcurve"/>
      <point x="294" y="-6"/>
      <point x="229" y="20"/>
      <point x="197" y="48" type="qcurve"/>
    </contour>
    <contour>
      <point x="446" y="237" type="qcurve"/>
      <point x="446" y="305"/>
      <point x="374" y="388"/>
      <point x="317" y="388" type="qcurve"/>
      <point x="286" y="388"/>
      <point x="231" y="361"/>
      <point x="197" y="330" type="qcurve"/>
      <point x="197" y="126" type="line"/>
      <point x="224" y="105"/>
      <point x="273" y="85"/>
      <point x="299" y="85" type="qcurve"/>
      <point x="366" y="85"/>
      <point x="446" y="169"/>
    </contour>
  </outline>
</glyph>
<glyph name="Aogonek" format="2">
  <advance width="614"/>
  <unicode hex="0104"/>
  <outline>
    <contour>
      <point x="195" y="155" type="line"/>
      <point x="147" y="0" type="line"/>
      <point x="35" y="0" type="line"/>
      <point x="237" y="655" type="line"/>
      <point x="377" y="655" type="line"/>
      <point x="579" y="0" type="line"/>
      <point x="537" y="0" type="line"/>
      <point x="506" y="-44"/>
      <point x="477" y="-100"/>
      <point x="477" y="-119" type="qcurve"/>
      <point x="477" y="-138"/>
      <point x="497" y="-155"/>
      <point x="521" y="-156" type="qcurve"/>
      <point x="587" y="-160" type="line"/>
      <point x="579" y="-234" type="line"/>
      <point x="484" y="-230" type="line"/>
      <point x="436" y="-228"/>
      <point x="392" y="-192"/>
      <point x="392" y="-156" type="qcurve"/>
      <point x="392" y="-129"/>
      <point x="433" y="-57"/>
      <point x="480" y="0" type="qcurve"/>
      <point x="461" y="0" type="line"/>
      <point x="413" y="155" type="line"/>
    </contour>
    <contour>
      <point x="304" y="538" type="line"/>
      <point x="219" y="244" type="line"/>
      <point x="388" y="244" type="line"/>
    </contour>
  </outline>
</glyph>
<glyph name="dcroat" format="2">
  <advance width="614"/>
  <unicode hex="0111"/>
  <outline>
    <contour>
      <point x="250" y="-10" type="qcurve"/>
      <point x="163" y="-10"/>
      <point x="52" y="108"/>
      <point x="52" y="204" type="qcurve"/>
      <point x="52" y="301"/>
      <point x="182" y="427"/>
      <point x="282" y="427" type="qcurve"/>
      <point x="317" y="427"/>
      <point x="374" y="409"/>
      <point x="402" y="389" type="qcurve"/>
      <point x="402" y="523" type="line"/>
      <point x="247" y="523" type="line"/>
      <point x="247" y="589" type="line"/>
      <point x="402" y="589" type="line"/>
      <point x="402" y="710" type="line"/>
      <point x="514" y="710" type="line"/>
      <point x="514" y="589" type="line"/>
      <point x="595" y="589" type="line"/>
      <point x="595" y="523" type="line"/>
      <point x="514" y="523" type="line"/>
      <point x="514" y="0" type="line"/>
      <point x="418" y="0" type="line"/>
      <point x="409" y="68" type="line"/>
      <point x="371" y="27"/>
      <point x="296" y="-10"/>
    </contour>
    <contour>
      <point x="298" y="342" type="qcurve"/>
      <point x="239" y="342"/>
      <point x="168" y="269"/>
      <point x="168" y="210" type="qcurve"/>
      <point x="168" y="153"/>
      <point x="234" y="83"/>
      <point x="286" y="83" type="qcurve"/>
      <point x="315" y="83"/>
      <point x="368" y="110"/>
      <point x="402" y="141" type="qcurve"/>
      <point x="402" y="300" type="line"/>
      <point x="374" y="322"/>
      <point x="324" y="342"/>
    </contour>
  </outline>
</glyph>
<glyph name="Eogonek" format="2">
  <advance width="614"/>
  <unicode hex="0118"/>
  <outline>
    <contour>
      <point x="350" y="-156" type="qcurve"/>
      <point x="350" y="-130"/>
      <point x="391" y="-58"/>
      <point x="439" y="0" type="qcurve"/>
      <point x="93" y="0" type="line"/>
      <point x="93" y="655" type="line"/>
      <point x="538" y="655" type="line"/>
      <point x="538" y="561" type="line"/>
      <point x="206" y="561" type="line"/>
      <point x="206" y="377" type="line"/>
      <point x="494" y="377" type="line"/>
      <point x="494" y="284" type="line"/>
      <point x="206" y="284" type="line"/>
      <point x="206" y="94" type="line"/>
      <point x="542" y="94" type="line"/>
      <point x="542" y="0" type="line"/>
      <point x="495" y="0" type="line"/>
      <point x="464" y="-44"/>
      <point x="435" y="-100"/>
      <point x="435" y="-119" type="qcurve"/>
      <point x="435" y="-138"/>
      <point x="455" y="-155"/>
      <point x="479" y="-156" type="qcurve"/>
      <point x="545" y="-160" type="line"/>
      <point x="538" y="-234" type="line"/>
      <point x="442" y="-230" type="line"/>
      <point x="394" y="-228"/>
      <point x="350" y="-192"/>
    </contour>
  </outline>
</glyph>
<glyph name="Hbar" format="2">
  <advance width="614"/>
  <unicode hex="0126"/>
  <outline>
    <contour>
      <point x="106" y="468" type="line"/>
      <point x="26" y="468" type="line"/>
      <point x="26" y="530" type="line"/>
      <point x="106" y="530" type="line"/>
      <point x="106" y="655" type="line"/>
      <point x="216" y="655" type="line"/>
      <point x="216" y="527" type="line"/>
      <point x="398" y="527" type="line"/>
      <point x="398" y="655" type="line"/>
      <point x="508" y="655" type="line"/>
      <point x="508" y="530" type="line"/>
      <point x="588" y="530" type="line"/>
      <point x="588" y="468" type="line"/>
      <point x="508" y="468" type="line"/>
      <point x="508" y="0" type="line"/>
      <point x="398" y="0" type="line"/>
      <point x="398" y="248" type="line"/>
      <point x="216" y="248" type="line"/>
      <point x="216" y="0" type="line"/>
      <point x="106" y="0" type="line"/>
    </contour>
    <contour>
      <point x="216" y="471" type="line"/>
      <point x="216" y="335" type="line"/>
      <point x="398" y="335" type="line"/>
      <point x="398" y="471" type="line"/>
    </contour>
  </outline>
</glyph>
<glyph name="Iogonek" format="2">
  <advance width="614"/>
  <unicode hex="012E"/>
  <outline>
    <contour>
      <point x="123" y="0" type="line"/>
      <point x="123" y="59" type="line"/>
      <point x="252" y="83" type="line"/>
      <point x="252" y="572" type="line"/>
      <point x="123" y="596" type="line"/>
      <point x="123" y="655" type="line"/>
      <point x="491" y="655" type="line"/>
      <point x="491" y="596" type="line"/>
      <point x="364" y="572" type="line"/>
      <point x="364" y="83" type="line"/>
      <point x="491" y="59" type="line"/>
      <point x="491" y="0" type="line"/>
      <point x="339" y="0" type="line"/>
      <point x="308" y="-43"/>
      <point x="279" y="-100"/>
      <point x="279" y="-118" type="qcurve"/>
      <point x="279" y="-138"/>
      <point x="299" y="-155"/>
      <point x="323" y="-156" type="qcurve"/>
      <point x="389" y="-160" type="line"/>
      <point x="381" y="-234" type="line"/>
      <point x="286" y="-230" type="line"/>
      <point x="238" y="-227"/>
      <point x="194" y="-192"/>
      <point x="194" y="-156" type="qcurve"/>
      <point x="194" y="-129"/>
      <point x="236" y="-57"/>
      <point x="283" y="0" type="qcurve"/>
    </contour>
  </outline>
</glyph>
<glyph name="iogonek" format="2">
  <advance width="614"/>
  <unicode hex="012F"/>
  <outline>
    <contour>
      <point x="403" y="665" type="qcurve"/>
      <point x="403" y="631"/>
      <point x="356" y="592"/>
      <point x="314" y="592" type="qcurve"/>
      <point x="273" y="592"/>
      <point x="227" y="631"/>
      <point x="227" y="666" type="qcurve"/>
      <point x="227" y="699"/>
      <point x="276" y="740"/>
      <point x="315" y="740" type="qcurve"/>
      <point x="357" y="740"/>
      <point x="403" y="701"/>
    </contour>
    <contour>
      <point x="104" y="0" type="line"/>
      <point x="104" y="95" type="line"/>
      <point x="266" y="95" type="line"/>
      <point x="266" y="376" type="line"/>
      <point x="124" y="376" type="line"/>
      <point x="124" y="471" type="line"/>
      <point x="378" y="471" type="line"/>
      <point x="378" y="95" type="line"/>
      <point x="541" y="95" type="line"/>
      <point x="541" y="0" type="line"/>
      <point x="354" y="0" type="line"/>
      <point x="323" y="-44"/>
      <point x="294" y="-100"/>
      <point x="294" y="-119" type="qcurve"/>
      <point x="294" y="-138"/>
      <point x="314" y="-155"/>
      <point x="337" y="-156" type="qcurve"/>
      <point x="404" y="-160" type="line"/>
      <point x="396" y="-234" type="line"/>
      <point x="300" y="-230" type="line"/>
      <point x="252" y="-228"/>
      <point x="208" y="-192"/>
      <point x="208" y="-156" type="qcurve"/>
      <point x="208" y="-130"/>
      <point x="249" y="-58"/>
      <point x="297" y="0" type="qcurve"/>
    </contour>
  </outline>
</glyph>
<glyph name="dotlessi" format="2">
  <advance width="614"/>
  <unicode hex="0131"/>
  <outline>
    <contour>
      <point x="104" y="0" type="line"/>
      <point x="104" y="95" type="line"/>
      <point x="266" y="95" type="line"/>
      <point x="266" y="376" type="line"/>
      <point x="124" y="376" type="line"/>
      <point x="124" y="471" type="line"/>
      <point x="378" y="471" type="line"/>
      <point x="378" y="95" type="line"/>
      <point x="541" y="95" type="line"/>
      <point x="541" y="0" type="line"/>
    </contour>
  </outline>
</glyph>
<glyph name="lslash" format="2">
  <advance width="614"/>
  <unicode hex="0142"/>
  <outline>
    <contour>
      <point x="230" y="301" type="line"/>
      <point x="87" y="217" type="line"/>
      <point x="87" y="302" type="line"/>
      <point x="230" y="386" type="line"/>
      <point x="230" y="615" type="line"/>
      <point x="58" y="615" type="line"/>
      <point x="58" y="710" type="line"/>
      <point x="341" y="710" type="line"/>
      <point x="341" y="436" type="line"/>
      <point x="508" y="535" type="line"/>
      <point x="508" y="451" type="line"/>
      <point x="341" y="351" type="line"/>
      <point x="341" y="192" type="line"/>
      <point x="341" y="142"/>
      <point x="380" y="99"/>
      <point x="429" y="96" type="qcurve"/>
      <point x="538" y="90" type="line"/>
      <point x="533" y="-6" type="line"/>
      <point x="409" y="0" type="line"/>
      <point x="307" y="5"/>
      <point x="230" y="84"/>
      <point x="230" y="182" type="qcurve"/>
    </contour>
  </outline>
</glyph>
<glyph name="eng" format="2">
  <advance width="614"/>
  <unicode hex="014B"/>
  <outline>
    <contour>
      <point x="88" y="471" type="line"/>
      <point x="184" y="471" type="line"/>
      <point x="193" y="377" type="line"/>
      <point x="255" y="433"/>
      <point x="344" y="479"/>
      <point x="391" y="479" type="qcurve"/>
      <point x="460" y="479"/>
      <point x="530" y="402"/>
      <point x="530" y="325" type="qcurve"/>
      <point x="530" y="-37" type="line"/>
      <point x="530" y="-139"/>
      <point x="447" y="-224"/>
      <point x="339" y="-230" type="qcurve"/>
      <point x="219" y="-237" type="line"/>
      <point x="215" y="-141" type="line"/>
      <point x="331" y="-132" type="line"/>
      <point x="379" y="-128"/>
      <point x="418" y="-89"/>
      <point x="418" y="-43" type="qcurve"/>
      <point x="418" y="305" type="line"/>
      <point x="418" y="341"/>
      <point x="387" y="375"/>
      <point x="354" y="375" type="qcurve"/>
      <point x="326" y="375"/>
      <point x="256" y="334"/>
      <point x="200" y="284" type="qcurve"/>
      <point x="200" y="0" type="line"/>
      <point x="88" y="0" type="line"/>
    </contour>
  </outline>
</glyph>
<glyph name="Scedilla" format="2">
  <advance width="614"/>
  <unicode hex="015E"/>
  <outline>
    <contour>
      <point x="305" y="80" type="qcurve"/>
      <point x="368" y="80"/>
      <point x="431" y="127"/>
      <point x="431" y="174" type="qcurve"/>
      <point x="431" y="213"/>
      <point x="383" y="256"/>
      <point x="321" y="275" type="qcurve"/>
      <point x="254" y="296" type="line"/>
      <point x="167" y="324"/>
      <point x="88" y="415"/>
      <point x="88" y="487" type="qcurve"/>
      <point x="88" y="566"/>
      <point x="215" y="667"/>
      <point x="321" y="667" type="qcurve"/>
      <point x="369" y="667"/>
      <point x="460" y="654"/>
      <point x="523" y="638" type="qcurve"/>
      <point x="507" y="542" type="line"/>
      <point x="448" y="558"/>
      <point x="355" y="574"/>
      <point x="319" y="574" type="qcurve"/>
      <point x="261" y="574"/>
      <point x="201" y="534"/>
      <point x="201" y="496" type="qcurve"/>
      <point x="201" y="456"/>
      <point x="250" y="410"/>
      <point x="310" y="391" type="qcurve"/>
      <point x="379" y="369" type="line"/>
      <point x="469" y="342"/>
      <point x="545" y="257"/>
      <point x="545" y="182" type="qcurve"/>
      <point x="545" y="96"/>
      <point x="430" y="-8"/>
      <point x="327" y="-13" type="qcurve"/>
      <point x="311" y="-63" type="line"/>
      <point x="389" y="-71"/>
      <point x="459" y="-112"/>
      <point x="459" y="-152" type="qcurve"/>
      <point x="459" y="-193"/>
      <point x="412" y="-235"/>
      <point x="359" y="-248" type="qcurve"/>
      <point x="331" y="-255"/>
      <point x="255" y="-266"/>
      <point x="206" y="-270" type="qcurve"/>
      <point x="188" y="-209" type="line"/>
      <point x="297" y="-199"/>
      <point x="380" y="-177"/>
      <point x="380" y="-154" type="qcurve"/>
      <point x="380" y="-134"/>
      <point x="318" y="-117"/>
      <point x="246" y="-114" type="qcurve"/>
      <point x="240" y="-104" type="line"/>
      <point x="271" y="-13" type="line"/>
      <point x="224" y="-10"/>
      <point x="123" y="12"/>
      <point x="64" y="33" type="qcurve"/>
      <point x="88" y="129" type="line"/>
      <point x="159" y="104"/>
      <point x="267" y="80"/>
    </contour>
  </outline>
</glyph>
<glyph name="tcedilla" format="2">
  <advance width="614"/>
  <unicode hex="0163"/>
  <outline>
    <contour>
      <point x="209" y="186" type="qcurve"/>
      <point x="209" y="376" type="line"/>
      <point x="57" y="376" type="line"/>
      <point x="57" y="471" type="line"/>
      <point x="210" y="471" type="line"/>
      <point x="210" y="639" type="line"/>
      <point x="319" y="639" type="line"/>
      <point x="319" y="471" type="line"/>
      <point x="517" y="471" type="line"/>
      <point x="517" y="376" type="line"/>
      <point x="321" y="376" type="line"/>
      <point x="321" y="200" type="line"/>
      <point x="321" y="142"/>
      <point x="356" y="100"/>
      <point x="407" y="97" type="qcurve"/>
      <point x="543" y="89" type="line"/>
      <point x="535" y="-7" type="line"/>
      <point x="381" y="0" type="line"/>
      <point x="378" y="0"/>
      <point x="354" y="2"/>
      <point x="347" y="3" type="qcurve"/>
      <point x="328" y="-58" type="line"/>
      <point x="407" y="-66"/>
      <point x="477" y="-107"/>
      <point x="477" y="-147" type="qcurve"/>
      <point x="477" y="-187"/>
      <point x="430" y="-230"/>
      <point x="376" y="-243" type="qcurve"/>
      <point x="348" y="-250"/>
      <point x="272" y="-261"/>
      <point x="223" y="-265" type="qcurve"/>
      <point x="206" y="-204" type="line"/>
      <point x="315" y="-194"/>
      <point x="398" y="-172"/>
      <point x="398" y="-149" type="qcurve"/>
      <point x="398" y="-129"/>
      <point x="336" y="-112"/>
      <point x="264" y="-109" type="qcurve"/>
      <point x="258" y="-99" type="line"/>
      <point x="296" y="13" type="line"/>
      <point x="248" y="27"/>
      <point x="209" y="104"/>
    </contour>
  </outline>
</glyph>
<glyph name="Tbar" format="2">
  <advance width="614"/>
  <unicode hex="0166"/>
  <outline>
    <contour>
      <point x="251" y="279" type="line"/>
      <point x="111" y="279" type="line"/>
      <point x="111" y="343" type="line"/>
      <point x="251" y="343" type="line"/>
      <point x="251" y="561" type="line"/>
      <point x="45" y="561" type="line"/>
      <point x="45" y="655" type="line"/>
      <point x="569" y="655" type="line"/>
      <point x="569" y="561" type="line"/>
      <point x="363" y="561" type="line"/>
      <point x="363" y="343" type="line"/>
      <point x="504" y="343" type="line"/>
      <point x="504" y="279" type="line"/>
      <point x="363" y="279" type="line"/>
      <point x="363" y="0" type="line"/>
      <point x="251" y="0" type="line"/>
    </contour>
  </outline>
</glyph>
<glyph name="uogonek" format="2">
  <advance width="614"/>
  <unicode hex="0173"/>
  <outline>
    <contour>
      <point x="363" y="-156" type="qcurve"/>
      <point x="363" y="-130"/>
      <point x="404" y="-58"/>
      <point x="452" y="0" type="qcurve"/>
      <point x="427" y="0" type="line"/>
      <point x="420" y="93" type="line"/>
      <point x="359" y="37"/>
      <point x="270" y="-9"/>
      <point x="223" y="-9" type="qcurve"/>
      <point x="154" y="-9"/>
      <point x="84" y="69"/>
      <point x="84" y="145" type="qcurve"/>
      <point x="84" y="471" type="line"/>
      <point x="196" y="471" type="line"/>
      <point x="196" y="166" type="line"/>
      <point x="196" y="130"/>
      <point x="227" y="96"/>
      <point x="260" y="96" type="qcurve"/>
      <point x="288" y="96"/>
      <point x="358" y="137"/>
      <point x="414" y="187" type="qcurve"/>
      <point x="414" y="471" type="line"/>
      <point x="526" y="471" type="line"/>
      <point x="526" y="0" type="line"/>
      <point x="508" y="0" type="line"/>
      <point x="477" y="-44"/>
      <point x="448" y="-100"/>
      <point x="448" y="-119" type="qcurve"/>
      <point x="448" y="-138"/>
      <point x="468" y="-155"/>
      <point x="492" y="-156" type="qcurve"/>
      <point x="558" y="-160" type="line"/>
      <point x="551" y="-234" type="line"/>
      <point x="455" y="-230" type="line"/>
      <point x="407" y="-228"/>
      <point x="363" y="-192"/>
    </contour>
  </outline>
</glyph>
<glyph name="uhorn" format="2">
  <advance width="614"/>
  <unicode hex="01B0"/>
  <outline>
    <contour>
      <point x="526" y="405" type="qcurve"/>
      <point x="526" y="0" type="line"/>
      <point x="427" y="0" type="line"/>
      <point x="420" y="93" type="line"/>
      <point x="359" y="37"/>
      <point x="270" y="-9"/>
      <point x="223" y="-9" type="qcurve"/>
      <point x="154" y="-9"/>
      <point x="84" y="69"/>
      <point x="84" y="145" type="qcurve"/>
      <point x="84" y="471" type="line"/>
      <point x="196" y="471" type="line"/>
      <point x="196" y="166" type="line"/>
      <point x="196" y="130"/>
      <point x="227" y="96"/>
      <point x="260" y="96" type="qcurve"/>
      <point x="288" y="96"/>
      <point x="358" y="137"/>
      <point x="414" y="187" type="qcurve"/>
      <point x="414" y="471" type="line"/>
      <point x="454" y="471" type="line"/>
      <point x="508" y="471"/>
      <point x="548" y="515"/>
      <point x="551" y="583" type="qcurve"/>
      <point x="653" y="583" type="line"/>
      <point x="651" y="495"/>
      <point x="589" y="408"/>
    </contour>
  </outline>
</glyph>
<glyph name="Oogonek" format="2">
  <advance width="614"/>
  <unicode hex="01EA"/>
  <outline>
    <contour>
      <point x="205" y="-161" type="qcurve"/>
      <point x="205" y="-135"/>
      <point x="243" y="-67"/>
      <point x="287" y="-14" type="qcurve"/>
      <point x="174" y="-7"/>
      <point x="53" y="168"/>
      <point x="53" y="326" type="qcurve"/>
      <point x="53" y="491"/>
      <point x="186" y="670"/>
      <point x="308" y="670" type="qcurve"/>
      <point x="430" y="670"/>
      <point x="561" y="494"/>
      <point x="561" y="328" type="qcurve"/>
      <point x="561" y="177"/>
      <point x="449" y="2"/>
      <point x="345" y="-12" type="qcurve"/>
      <point x="317" y="-52"/>
      <point x="290" y="-104"/>
      <point x="290" y="-124" type="qcurve"/>
      <point x="290" y="-143"/>
      <point x="310" y="-160"/>
      <point x="334" y="-161" type="qcurve"/>
      <point x="400" y="-165" type="line"/>
      <point x="392" y="-239" type="line"/>
      <point x="297" y="-235" type="line"/>
      <point x="249" y="-233"/>
      <point x="205" y="-197"/>
    </contour>
    <contour>
      <point x="307" y="576" type="qcurve"/>
      <point x="236" y="576"/>
      <point x="168" y="454"/>
      <point x="168" y="328" type="qcurve"/>
      <point x="168" y="202"/>
      <point x="237" y="79"/>
      <point x="307" y="79" type="qcurve"/>
      <point x="378" y="79"/>
      <point x="446" y="201"/>
      <point x="446" y="326" type="qcurve"/>
      <point x="446" y="452"/>
      <point x="377" y="576"/>
    </contour>
  </outline>
</glyph>
<glyph name="schwa" format="2">
  <advance width="614"/>
  <unicode hex="0259"/>
  <outline>
    <contour>
      <point x="245" y="392" type="qcurve"/>
      <point x="157" y="395" type="line"/>
      <point x="161" y="482" type="line"/>
      <point x="281" y="480" type="line"/>
      <point x="416" y="478"/>
      <point x="547" y="361"/>
      <point x="547" y="242" type="qcurve"/>
      <point x="547" y="131"/>
      <point x="407" y="-14"/>
      <point x="298" y="-14" type="qcurve"/>
      <point x="191" y="-14"/>
      <point x="66" y="115"/>
      <point x="66" y="227" type="qcurve"/>
      <point x="66" y="240"/>
      <point x="69" y="264"/>
      <point x="71" y="274" type="qcurve"/>
      <point x="437" y="274" type="line"/>
      <point x="428" y="336"/>
      <point x="341" y="389"/>
    </contour>
    <contour>
      <point x="297" y="72" type="qcurve"/>
      <point x="352" y="72"/>
      <point x="426" y="138"/>
      <point x="436" y="196" type="qcurve"/>
      <point x="175" y="196" type="line"/>
      <point x="179" y="136"/>
      <point x="243" y="72"/>
    </contour>
  </outline>
</glyph>
<glyph name="ringhalfright" format="2">
  <advance width="614"/>
  <unicode hex="02BE"/>
  <outline>
    <contour>
      <point x="444" y="523" type="qcurve"/>
      <point x="444" y="425"/>
      <point x="307" y="315"/>
      <point x="180" y="315" type="qcurve"/>
      <point x="180" y="401" type="line"/>
      <point x="264" y="401"/>
      <point x="343" y="460"/>
      <point x="343" y="523" type="qcurve"/>
      <point x="343" y="584"/>
      <point x="264" y="639"/>
      <point x="180" y="639" type="qcurve"/>
      <point x="180" y="725" type="line"/>
      <point x="307" y="725"/>
      <point x="444" y="619"/>
    </contour>
  </outline>
</glyph>
<glyph name="verticallinemod" format="2">
  <advance width="614"/>
  <unicode hex="02C8"/>
  <outline>
    <contour>
      <point x="361" y="715" type="line"/>
      <point x="361" y="323" type="line"/>
      <point x="253" y="323" type="line"/>
      <point x="253" y="715" type="line"/>
    </contour>
  </outline>
</glyph>
<glyph name="tildecmb" format="2">
  <unicode hex="0303"/>
  <outline>
    <contour>
      <point x="80" y="547" type="qcurve"/>
      <point x="59" y="547"/>
      <point x="15" y="576"/>
      <point x="-20" y="610" type="qcurve"/>
      <point x="-49" y="638"/>
      <point x="-73" y="657"/>
      <point x="-81" y="657" type="qcurve"/>
      <point x="-92" y="657"/>
      <point x="-115" y="610"/>
      <point x="-138" y="543" type="qcurve"/>
      <point x="-206" y="567" type="line"/>
      <point x="-174" y="662"/>
      <point x="-120" y="743"/>
      <point x="-82" y="743" type="qcurve"/>
      <point x="-62" y="743"/>
      <point x="-18" y="715"/>
      <point x="18" y="679" type="qcurve"/>
      <point x="52" y="646"/>
      <point x="71" y="632"/>
      <point x="79" y="632" type="qcurve"/>
      <point x="91" y="632"/>
      <point x="115" y="681"/>
      <point x="138" y="746" type="qcurve"/>
      <point x="204" y="722" type="line"/>
      <point x="172" y="627"/>
      <point x="119" y="547"/>
    </contour>
  </outline>
</glyph>
<glyph name="macroncmb" format="2">
  <unicode hex="0304"/>
  <outline>
    <contour>
      <point x="168" y="587" type="line"/>
      <point x="-168" y="587" type="line"/>
      <point x="-168" y="666" type="line"/>
      <point x="168" y="666" type="line"/>
    </contour>
  </outline>
</glyph>
<glyph name="hungarumlautcmb" format="2">
  <unicode hex="030B"/>
  <outline>
    <contour>
      <point x="-139" y="547" type="line"/>
      <point x="-189" y="592" type="line"/>
      <point x="-70" y="749" type="line"/>
      <point x="-1" y="695" type="line"/>
    </contour>
    <contour>
      <point x="98" y="547" type="line"/>
      <point x="48" y="592" type="line"/>
      <point x="167" y="749" type="line"/>
      <point x="235" y="695" type="line"/>
    </contour>
  </outline>
</glyph>
<glyph name="caroncmb" format="2">
  <unicode hex="030C"/>
  <outline>
    <contour>
      <point x="146" y="752" type="line"/>
      <point x="186" y="705" type="line"/>
      <point x="26" y="547" type="line"/>
      <point x="-26" y="547" type="line"/>
      <point x="-186" y="705" type="line"/>
      <point x="-146" y="752" type="line"/>
      <point x="0" y="632" type="line"/>
    </contour>
  </outline>
</glyph>
<glyph name="commaturnedabovecmb" format="2">
  <unicode hex="0312"/>
  <outline>
    <contour>
      <point x="-117" y="652" type="qcurve"/>
      <point x="-117" y="697"/>
      <point x="-10" y="760"/>
      <point x="92" y="773" type="qcurve"/>
      <point x="116" y="726" type="line"/>
      <point x="116" y="724" type="line"/>
      <point x="46" y="712"/>
      <point x="-18" y="683"/>
      <point x="-18" y="663" type="qcurve"/>
      <point x="-18" y="642"/>
      <point x="50" y="616"/>
      <point x="126" y="605" type="qcurve"/>
      <point x="126" y="603" type="line"/>
      <point x="82" y="547" type="line"/>
      <point x="-23" y="560"/>
      <point x="-117" y="608"/>
    </contour>
  </outline>
</glyph>
<glyph name="dieresisbelowcmb" format="2">
  <unicode hex="0324"/>
  <outline>
    <contour>
      <point x="-51" y="-160" type="qcurve"/>
      <point x="-51" y="-189"/>
      <point x="-86" y="-222"/>
      <point x="-117" y="-222" type="qcurve"/>
      <point x="-148" y="-222"/>
      <point x="-182" y="-190"/>
      <point x="-182" y="-160" type="qcurve"/>
      <point x="-182" y="-131"/>
      <point x="-146" y="-96"/>
      <point x="-116" y="-96" type="qcurve"/>
      <point x="-84" y="-96"/>
      <point x="-51" y="-128"/>
    </contour>
    <contour>
      <point x="182" y="-160" type="qcurve"/>
      <point x="182" y="-189"/>
      <point x="147" y="-222"/>
      <point x="115" y="-222" type="qcurve"/>
      <point x="84" y="-222"/>
      <point x="51" y="-190"/>
      <point x="51" y="-160" type="qcurve"/>
      <point x="51" y="-131"/>
      <point x="86" y="-96"/>
      <point x="116" y="-96" type="qcurve"/>
      <point x="148" y="-96"/>
      <point x="182" y="-129"/>
    </contour>
  </outline>
</glyph>
<glyph name="ogonekcmb" format="2">
  <unicode hex="0328"/>
  <outline>
    <contour>
      <point x="-113" y="-156" type="qcurve"/>
      <point x="-113" y="-129"/>
      <point x="-66" y="-51"/>
      <point x="-13" y="13" type="qcurve"/>
      <point x="39" y="9" type="line"/>
      <point x="4" y="-38"/>
      <point x="-28" y="-98"/>
      <point x="-28" y="-119" type="qcurve"/>
      <point x="-28" y="-138"/>
      <point x="-8" y="-155"/>
      <point x="16" y="-156" type="qcurve"/>
      <point x="82" y="-160" type="line"/>
      <point x="74" y="-234" type="line"/>
      <point x="-21" y="-230" type="line"/>
      <point x="-69" y="-228"/>
      <point x="-113" y="-192"/>
    </contour>
  </outline>
</glyph>
<glyph name="circumflexbelowcmb" format="2">
  <unicode hex="032D"/>
  <outline>
    <contour>
      <point x="-146" y="-281" type="line"/>
      <point x="-186" y="-235" type="line"/>
      <point x="-26" y="-76" type="line"/>
      <point x="26" y="-76" type="line"/>
      <point x="186" y="-235" type="line"/>
      <point x="146" y="-281" type="line"/>
      <point x="0" y="-162" type="line"/>
    </contour>
  </outline>
</glyph>
<glyph name="brevebelowcmb" format="2">
  <unicode hex="032E"/>
  <outline>
    <contour>
      <point x="0" y="-197" type="qcurve"/>
      <point x="42" y="-197"/>
      <point x="101" y="-138"/>
      <point x="123" y="-76" type="qcurve"/>
      <point x="191" y="-99" type="line"/>
      <point x="168" y="-187"/>
      <point x="72" y="-275"/>
      <point x="0" y="-275" type="qcurve"/>
      <point x="-72" y="-275"/>
      <point x="-168" y="-187"/>
      <point x="-191" y="-99" type="qcurve"/>
      <point x="-123" y="-76" type="line"/>
      <point x="-101" y="-139"/>
      <point x="-42" y="-197"/>
    </contour>
  </outline>
</glyph>
<glyph name="bahtthai" format="2">
  <advance width="614"/>
  <unicode hex="0E3F"/>
  <outline>
    <contour>
      <point x="352" y="0" type="qcurve"/>
      <point x="352" y="-142" type="line"/>
      <point x="274" y="-142" type="line"/>
      <point x="274" y="0" type="line"/>
      <point x="88" y="0" type="line"/>
      <point x="88" y="655" type="line"/>
      <point x="274" y="655" type="line"/>
      <point x="274" y="796" type="line"/>
      <point x="352" y="796" type="line"/>
      <point x="352" y="655" type="line"/>
      <point x="451" y="654"/>
      <point x="552" y="576"/>
      <point x="552" y="502" type="qcurve"/>
      <point x="552" y="438"/>
      <point x="471" y="354"/>
      <point x="393" y="338" type="qcurve"/>
      <point x="393" y="334" type="line"/>
      <point x="478" y="322"/>
      <point x="569" y="234"/>
      <point x="569" y="164" type="qcurve"/>
      <point x="569" y="83"/>
      <point x="461" y="2"/>
    </contour>
    <contour>
      <point x="438" y="481" type="qcurve"/>
      <point x="438" y="526"/>
      <point x="387" y="568"/>
      <point x="333" y="568" type="qcurve"/>
      <point x="199" y="568" type="line"/>
      <point x="199" y="368" type="line"/>
      <point x="299" y="374" type="line"/>
      <point x="367" y="377"/>
      <point x="438" y="433"/>
    </contour>
    <contour>
      <point x="456" y="178" type="qcurve"/>
      <point x="456" y="228"/>
      <point x="378" y="282"/>
      <point x="300" y="285" type="qcurve"/>
      <point x="199" y="290" type="line"/>
      <point x="199" y="86" type="line"/>
      <point x="334" y="86" type="line"/>
      <point x="395" y="86"/>
      <point x="456" y="132"/>
    </contour>
  </outline>
</glyph>
<glyph name="Hcedilla" format="2">
  <advance width="614"/>
  <unicode hex="1E28"/>
  <outline>
    <contour>
      <point x="85" y="0" type="line"/>
      <point x="85" y="655" type="line"/>
      <point x="197" y="655" type="line"/>
      <point x="197" y="377" type="line"/>
      <point x="417" y="377" type="line"/>
      <point x="417" y="655" type="line"/>
      <point x="529" y="655" type="line"/>
      <point x="529" y="0" type="line"/>
      <point x="417" y="0" type="line"/>
      <point x="417" y="283" type="line"/>
      <point x="197" y="283" type="line"/>
      <point x="197" y="0" type="line"/>
      <point x="166" y="0" type="line"/>
      <point x="148" y="-58" type="line"/>
      <point x="227" y="-66"/>
      <point x="297" y="-107"/>
      <point x="297" y="-147" type="qcurve"/>
      <point x="297" y="-187"/>
      <point x="250" y="-230"/>
      <point x="196" y="-243" type="qcurve"/>
      <point x="168" y="-250"/>
      <point x="92" y="-261"/>
      <point x="43" y="-265" type="qcurve"/>
      <point x="26" y="-204" type="line"/>
      <point x="134" y="-194"/>
      <point x="217" y="-172"/>
      <point x="217" y="-149" type="qcurve"/>
      <point x="217" y="-129"/>
      <point x="156" y="-112"/>
      <point x="84" y="-109" type="qcurve"/>
      <point x="78" y="-99" type="line"/>
      <point x="112" y="0" type="line"/>
    </contour>
  </outline>
</glyph>
<glyph name="hcedilla" format="2">
  <advance width="614"/>
  <unicode hex="1E29"/>
  <outline>
    <contour>
      <point x="88" y="710" type="line"/>
      <point x="200" y="710" type="line"/>
      <point x="200" y="384" type="line"/>
      <point x="258" y="436"/>
      <point x="345" y="479"/>
      <point x="391" y="479" type="qcurve"/>
      <point x="460" y="479"/>
      <point x="530" y="402"/>
      <point x="530" y="325" type="qcurve"/>
      <point x="530" y="0" type="line"/>
      <point x="418" y="0" type="line"/>
      <point x="418" y="305" type="line"/>
      <point x="418" y="341"/>
      <point x="387" y="375"/>
      <point x="354" y="375" type="qcurve"/>
      <point x="326" y="375"/>
      <point x="256" y="334"/>
      <point x="200" y="284" type="qcurve"/>
      <point x="200" y="0" type="line"/>
      <point x="169" y="0" type="line"/>
      <point x="151" y="-58" type="line"/>
      <point x="229" y="-66"/>
      <point x="299" y="-107"/>
      <point x="299" y="-147" type="qcurve"/>
      <point x="299" y="-188"/>
      <point x="252" y="-230"/>
      <point x="199" y="-243" type="qcurve"/>
      <point x="171" y="-250"/>
      <point x="95" y="-261"/>
      <point x="46" y="-265" type="qcurve"/>
      <point x="28" y="-204" type="line"/>
      <point x="137" y="-194"/>
      <point x="220" y="-172"/>
      <point x="220" y="-149" type="qcurve"/>
      <point x="220" y="-129"/>
      <point x="158" y="-112"/>
      <point x="86" y="-109" type="qcurve"/>
      <point x="80" y="-99" type="line"/>
      <point x="114" y="0" type="line"/>
      <point x="88" y="0" type="line"/>
    </contour>
  </outline>
</glyph>
<glyph name="uni1E9E" format="2">
  <advance width="614"/>
  <unicode hex="1E9E"/>
  <outline>
    <contour>
      <point x="473" y="147" type="qcurve"/>
      <point x="473" y="183"/>
      <point x="414" y="247"/>
      <point x="326" y="311" type="qcurve"/>
      <point x="326" y="344" type="line"/>
      <point x="432" y="541" type="line"/>
      <point x="397" y="560"/>
      <point x="342" y="576"/>
      <point x="314" y="576" type="qcurve"/>
      <point x="252" y="576"/>
      <point x="191" y="505"/>
      <point x="191" y="433" type="qcurve"/>
      <point x="191" y="0" type="line"/>
      <point x="78" y="0" type="line"/>
      <point x="78" y="427" type="line"/>
      <point x="78" y="542"/>
      <point x="199" y="670"/>
      <point x="307" y="670" type="qcurve"/>
      <point x="364" y="670"/>
      <point x="478" y="629"/>
      <point x="548" y="583" type="qcurve"/>
      <point x="548" y="559" type="line"/>
      <point x="434" y="347" type="line"/>
      <point x="516" y="288"/>
      <point x="580" y="203"/>
      <point x="580" y="144" type="qcurve"/>
      <point x="580" y="76"/>
      <point x="489" y="-6"/>
      <point x="413" y="-6" type="qcurve"/>
      <point x="386" y="-6"/>
      <point x="340" y="-2"/>
      <point x="316" y="2" type="qcurve"/>
      <point x="323" y="91" type="line"/>
      <point x="344" y="87"/>
      <point x="379" y="84"/>
      <point x="399" y="84" type="qcurve"/>
      <point x="435" y="84"/>
      <point x="473" y="117"/>
    </contour>
  </outline>
</glyph>
<glyph name="quoteright" format="2">
  <advance width="614"/>
  <unicode hex="2019"/>
  <outline>
    <contour>
      <point x="249" y="410" type="qcurve"/>
      <point x="144" y="410" type="line"/>
      <point x="144" y="412" type="line"/>
      <point x="212" y="502"/>
      <point x="264" y="625"/>
      <point x="271" y="710" type="qcurve"/>
      <point x="441" y="710" type="line"/>
      <point x="427" y="613"/>
      <point x="342" y="478"/>
    </contour>
  </outline>
</glyph>
<glyph name="quotedblright" format="2">
  <advance width="614"/>
  <unicode hex="201D"/>
  <outline>
    <contour>
      <point x="384" y="405" type="qcurve"/>
      <point x="293" y="405" type="line"/>
      <point x="293" y="407" type="line"/>
      <point x="359" y="506"/>
      <point x="405" y="618"/>
      <point x="419" y="710" type="qcurve"/>
      <point x="565" y="710" type="line"/>
      <point x="541" y="600"/>
      <point x="465" y="473"/>
    </contour>
    <contour>
      <point x="128" y="405" type="qcurve"/>
      <point x="36" y="405" type="line"/>
      <point x="36" y="407" type="line"/>
      <point x="102" y="506"/>
      <point x="148" y="618"/>
      <point x="162" y="710" type="qcurve"/>
      <point x="308" y="710" type="line"/>
      <point x="284" y="599"/>
      <point x="209" y="473"/>
    </contour>
  </outline>
</glyph>
<glyph name="daggerdbl" format="2">
  <advance width="614"/>
  <unicode hex="2021"/>
  <outline>
    <contour>
      <point x="524" y="287" type="qcurve"/>
      <point x="524" y="185" type="line"/>
      <point x="505" y="185"/>
      <point x="459" y="192"/>
      <point x="414" y="203" type="qcurve"/>
      <point x="380" y="211"/>
      <point x="346" y="217"/>
      <point x="332" y="219" type="qcurve"/>
      <point x="333" y="201"/>
      <point x="338" y="160"/>
      <point x="346" y="119" type="qcurve"/>
      <point x="355" y="70"/>
      <point x="360" y="21"/>
      <point x="360" y="0" type="qcurve"/>
      <point x="254" y="0" type="line"/>
      <point x="254" y="21"/>
      <point x="260" y="70"/>
      <point x="269" y="119" type="qcurve"/>
      <point x="277" y="160"/>
      <point x="283" y="201"/>
      <point x="284" y="219" type="qcurve"/>
      <point x="269" y="218"/>
      <point x="235" y="211"/>
      <point x="200" y="203" type="qcurve"/>
      <point x="156" y="192"/>
      <point x="111" y="185"/>
      <point x="91" y="185" type="qcurve"/>
      <point x="91" y="287" type="line"/>
      <point x="110" y="287"/>
      <point x="155" y="281"/>
      <point x="199" y="271" type="qcurve"/>
      <point x="234" y="263"/>
      <point x="269" y="257"/>
      <point x="284" y="256" type="qcurve"/>
      <point x="284" y="459" type="line"/>
      <point x="268" y="458"/>
      <point x="229" y="451"/>
      <point x="191" y="442" type="qcurve"/>
      <point x="143" y="432"/>
      <point x="95" y="425"/>
      <point x="75" y="425" type="qcurve"/>
      <point x="75" y="527" type="line"/>
      <point x="96" y="527"/>
      <point x="144" y="521"/>
      <point x="191" y="511" type="qcurve"/>
      <point x="229" y="503"/>
      <point x="267" y="497"/>
      <point x="283" y="496" type="qcurve"/>
      <point x="282" y="513"/>
      <point x="276" y="554"/>
      <point x="267" y="595" type="qcurve"/>
      <point x="257" y="642"/>
      <point x="251" y="690"/>
      <point x="251" y="710" type="qcurve"/>
      <point x="363" y="710" type="line"/>
      <point x="363" y="690"/>
      <point x="357" y="642"/>
      <point x="348" y="594" type="qcurve"/>
      <point x="340" y="554"/>
      <point x="334" y="513"/>
      <point x="333" y="496" type="qcurve"/>
      <point x="349" y="497"/>
      <point x="386" y="503"/>
      <point x="423" y="511" type="qcurve"/>
      <point x="471" y="521"/>
      <point x="519" y="527"/>
      <point x="539" y="527" type="qcurve"/>
      <point x="539" y="425" type="line"/>
      <point x="520" y="425"/>
      <point x="474" y="432"/>
      <point x="427" y="442" type="qcurve"/>
      <point x="388" y="451"/>
      <point x="349" y="458"/>
      <point x="332" y="459" type="qcurve"/>
      <point x="332" y="256" type="line"/>
      <point x="347" y="257"/>
      <point x="381" y="263"/>
      <point x="415" y="271" type="qcurve"/>
      <point x="460" y="281"/>
      <point x="505" y="287"/>
    </contour>
  </outline>
</glyph>
<glyph name="fraction" format="2">
  <advance width="614"/>
  <unicode hex="2044"/>
  <outline>
    <contour>
      <point x="273" y="338" type="line"/>
      <point x="514" y="657" type="line"/>
      <point x="614" y="657" type="line"/>
      <point x="337" y="315" type="line"/>
      <point x="100" y="-2" type="line"/>
      <point x="0" y="-2" type="line"/>
    </contour>
  </outline>
</glyph>
<glyph name="naira" format="2">
  <advance width="614"/>
  <unicode hex="20A6"/>
  <outline>
    <contour>
      <point x="191" y="209" type="line"/>
      <point x="195" y="0" type="line"/>
      <point x="103" y="0" type="line"/>
      <point x="103" y="207" type="line"/>
      <point x="18" y="207" type="line"/>
      <point x="18" y="272" type="line"/>
      <point x="103" y="272" type="line"/>
      <point x="103" y="389" type="line"/>
      <point x="18" y="389" type="line"/>
      <point x="18" y="454" type="line"/>
      <point x="103" y="454" type="line"/>
      <point x="103" y="655" type="line"/>
      <point x="250" y="655" type="line"/>
      <point x="308" y="452" type="line"/>
      <point x="423" y="452" type="line"/>
      <point x="419" y="655" type="line"/>
      <point x="511" y="655" type="line"/>
      <point x="511" y="454" type="line"/>
      <point x="596" y="454" type="line"/>
      <point x="596" y="389" type="line"/>
      <point x="511" y="389" type="line"/>
      <point x="511" y="272" type="line"/>
      <point x="596" y="272" type="line"/>
      <point x="596" y="207" type="line"/>
      <point x="511" y="207" type="line"/>
      <point x="511" y="0" type="line"/>
      <point x="365" y="0" type="line"/>
      <point x="305" y="209" type="line"/>
    </contour>
    <contour>
      <point x="193" y="603" type="line"/>
      <point x="183" y="603" type="line"/>
      <point x="190" y="254" type="line"/>
      <point x="293" y="254" type="line"/>
    </contour>
    <contour>
      <point x="424" y="407" type="line"/>
      <point x="321" y="407" type="line"/>
      <point x="421" y="55" type="line"/>
      <point x="431" y="55" type="line"/>
    </contour>
  </outline>
</glyph>
<glyph name="won" format="2">
  <advance width="614"/>
  <unicode hex="20A9"/>
  <outline>
    <contour>
      <point x="312" y="405" type="line"/>
      <point x="301" y="405" type="line"/>
      <point x="232" y="0" type="line"/>
      <point x="112" y="0" type="line"/>
      <point x="93" y="311" type="line"/>
      <point x="14" y="311" type="line"/>
      <point x="14" y="377" type="line"/>
      <point x="90" y="377" type="line"/>
      <point x="73" y="655" type="line"/>
      <point x="141" y="655" type="line"/>
      <point x="155" y="372" type="line"/>
      <point x="241" y="372" type="line"/>
      <point x="265" y="509" type="line"/>
      <point x="349" y="509" type="line"/>
      <point x="373" y="372" type="line"/>
      <point x="459" y="372" type="line"/>
      <point x="474" y="655" type="line"/>
      <point x="541" y="655" type="line"/>
      <point x="524" y="377" type="line"/>
      <point x="600" y="377" type="line"/>
      <point x="600" y="311" type="line"/>
      <point x="520" y="311" type="line"/>
      <point x="501" y="0" type="line"/>
      <point x="382" y="0" type="line"/>
    </contour>
    <contour>
      <point x="419" y="106" type="line"/>
      <point x="445" y="106" type="line"/>
      <point x="456" y="320" type="line"/>
      <point x="382" y="320" type="line"/>
    </contour>
    <contour>
      <point x="158" y="320" type="line"/>
      <point x="169" y="106" type="line"/>
      <point x="195" y="106" type="line"/>
      <point x="232" y="320" type="line"/>
    </contour>
  </outline>
</glyph>
<glyph name="uni20B9" format="2">
  <advance width="614"/>
  <unicode hex="20B9"/>
  <outline>
    <contour>
      <point x="347" y="409" type="qcurve"/>
      <point x="64" y="409" type="line"/>
      <point x="64" y="480" type="line"/>
      <point x="347" y="480" type="line"/>
      <point x="347" y="590" type="line"/>
      <point x="64" y="590" type="line"/>
      <point x="64" y="655" type="line"/>
      <point x="555" y="655" type="line"/>
      <point x="555" y="590" type="line"/>
      <point x="460" y="590" type="line"/>
      <point x="460" y="480" type="line"/>
      <point x="555" y="480" type="line"/>
      <point x="555" y="409" type="line"/>
      <point x="460" y="409" type="line"/>
      <point x="455" y="313"/>
      <point x="346" y="211"/>
      <point x="242" y="207" type="qcurve"/>
      <point x="242" y="207" type="line"/>
      <point x="242" y="205" type="line"/>
      <point x="542" y="2" type="line"/>
      <point x="542" y="0" type="line"/>
      <point x="375" y="0" type="line"/>
      <point x="64" y="214" type="line"/>
      <point x="64" y="293" type="line"/>
      <point x="225" y="293" type="line"/>
      <point x="284" y="293"/>
      <point x="343" y="349"/>
    </contour>
  </outline>
</glyph>
<glyph name="uni20BD" format="2">
  <advance width="614"/>
  <unicode hex="20BD"/>
  <outline>
    <contour>
      <point x="118" y="123" type="line"/>
      <point x="29" y="123" type="line"/>
      <point x="29" y="188" type="line"/>
      <point x="118" y="188" type="line"/>
      <point x="118" y="284" type="line"/>
      <point x="29" y="284" type="line"/>
      <point x="29" y="349" type="line"/>
      <point x="118" y="349" type="line"/>
      <point x="118" y="655" type="line"/>
      <point x="364" y="655" type="line"/>
      <point x="475" y="655"/>
      <point x="590" y="558"/>
      <point x="590" y="466" type="qcurve"/>
      <point x="590" y="372"/>
      <point x="469" y="284"/>
      <point x="341" y="284" type="qcurve"/>
      <point x="229" y="284" type="line"/>
      <point x="229" y="188" type="line"/>
      <point x="438" y="188" type="line"/>
      <point x="438" y="123" type="line"/>
      <point x="229" y="123" type="line"/>
      <point x="229" y="0" type="line"/>
      <point x="118" y="0" type="line"/>
    </contour>
    <contour>
      <point x="479" y="457" type="qcurve"/>
      <point x="479" y="510"/>
      <point x="416" y="561"/>
      <point x="351" y="561" type="qcurve"/>
      <point x="229" y="561" type="line"/>
      <point x="229" y="349" type="line"/>
      <point x="334" y="349" type="line"/>
      <point x="406" y="349"/>
      <point x="479" y="404"/>
    </contour>
  </outline>
</glyph>
<glyph name="trademark" format="2">
  <advance width="614"/>
  <unicode hex="2122"/>
  <outline>
    <contour>
      <point x="121" y="652" type="line"/>
      <point x="37" y="652" type="line"/>
      <point x="37" y="710" type="line"/>
      <point x="265" y="710" type="line"/>
      <point x="265" y="652" type="line"/>
      <point x="184" y="652" type="line"/>
      <point x="184" y="404" type="line"/>
      <point x="121" y="404" type="line"/>
    </contour>
    <contour>
      <point x="490" y="710" type="line"/>
      <point x="557" y="710" type="line"/>
      <point x="568" y="404" type="line"/>
      <point x="513" y="404" type="line"/>
      <point x="512" y="662" type="line"/>
      <point x="446" y="500" type="line"/>
      <point x="425" y="500" type="line"/>
      <point x="357" y="659" type="line"/>
      <point x="357" y="404" type="line"/>
      <point x="301" y="404" type="line"/>
      <point x="313" y="710" type="line"/>
      <point x="380" y="710" type="line"/>
      <point x="436" y="582" type="line"/>
    </contour>
  </outline>
</glyph>
<glyph name="approxequal" format="2">
  <advance width="614"/>
  <unicode hex="2248"/>
  <outline>
    <contour>
      <point x="491" y="577" type="qcurve"/>
      <point x="573" y="549" type="line"/>
      <point x="532" y="436"/>
      <point x="471" y="351"/>
      <point x="425" y="351" type="qcurve"/>
      <point x="403" y="351"/>
      <point x="342" y="384"/>
      <point x="290" y="423" type="qcurve"/>
      <point x="232" y="466"/>
      <point x="204" y="482"/>
      <point x="193" y="482" type="qcurve"/>
      <point x="180" y="482"/>
      <point x="159" y="447"/>
      <point x="123" y="356" type="qcurve"/>
      <point x="41" y="384" type="line"/>
      <point x="82" y="497"/>
      <point x="143" y="581"/>
      <point x="189" y="581" type="qcurve"/>
      <point x="212" y="581"/>
      <point x="272" y="549"/>
      <point x="324" y="510" type="qcurve"/>
      <point x="376" y="471"/>
      <point x="408" y="451"/>
      <point x="421" y="451" type="qcurve"/>
      <point x="433" y="451"/>
      <point x="455" y="487"/>
    </contour>
    <contour>
      <point x="491" y="304" type="qcurve"/>
      <point x="573" y="276" type="line"/>
      <point x="532" y="163"/>
      <point x="471" y="78"/>
      <point x="425" y="78" type="qcurve"/>
      <point x="403" y="78"/>
      <point x="342" y="110"/>
      <point x="290" y="149" type="qcurve"/>
      <point x="237" y="188"/>
      <point x="205" y="208"/>
      <point x="193" y="208" type="qcurve"/>
      <point x="180" y="208"/>
      <point x="158" y="171"/>
      <point x="123" y="82" type="qcurve"/>
      <point x="41" y="111" type="line"/>
      <point x="82" y="224"/>
      <point x="143" y="308"/>
      <point x="189" y="308" type="qcurve"/>
      <point x="212" y="308"/>
      <point x="272" y="276"/>
      <point x="324" y="237" type="qcurve"/>
      <point x="376" y="198"/>
      <point x="408" y="178"/>
      <point x="421" y="178" type="qcurve"/>
      <point x="433" y="178"/>
      <point x="455" y="214"/>
    </contour>
  </outline>
</glyph>
<glyph name="acutecmb.cap" format="2">
  <outline>
    <contour>
      <point x="-58" y="731" type="line"/>
      <point x="-91" y="792" type="line"/>
      <point x="139" y="925" type="line"/>
      <point x="181" y="849" type="line"/>
    </contour>
  </outline>
</glyph>
<glyph name="breveacute.cap" format="2">
  <outline>
    <contour>
      <point x="-40" y="895" type="line"/>
      <point x="-65" y="958" type="line"/>
      <point x="175" y="1068" type="line"/>
      <point x="207" y="990" type="line"/>
    </contour>
    <contour>
      <point x="0" y="809" type="qcurve"/>
      <point x="46" y="809"/>
      <point x="107" y="854"/>
      <point x="123" y="900" type="qcurve"/>
      <point x="191" y="876" type="line"/>
      <point x="171" y="805"/>
      <point x="74" y="731"/>
      <point x="0" y="731" type="qcurve"/>
      <point x="-74" y="731"/>
      <point x="-171" y="808"/>
      <point x="-191" y="883" type="qcurve"/>
      <point x="-123" y="906" type="line"/>
      <point x="-106" y="857"/>
      <point x="-45" y="809"/>
    </contour>
  </outline>
</glyph>
<glyph name="breveacute" format="2">
  <outline>
    <contour>
      <point x="-39" y="739" type="line"/>
      <point x="-69" y="800" type="line"/>
      <point x="166" y="921" type="line"/>
      <point x="202" y="845" type="line"/>
    </contour>
    <contour>
      <point x="0" y="624" type="qcurve"/>
      <point x="43" y="624"/>
      <point x="103" y="678"/>
      <point x="123" y="735" type="qcurve"/>
      <point x="191" y="712" type="line"/>
      <point x="169" y="630"/>
      <point x="73" y="547"/>
      <point x="0" y="547" type="qcurve"/>
      <point x="-73" y="547"/>
      <point x="-169" y="630"/>
      <point x="-191" y="712" type="qcurve"/>
      <point x="-123" y="735" type="line"/>
      <point x="-103" y="678"/>
      <point x="-43" y="624"/>
    </contour>
  </outline>
</glyph>
<glyph name="brevehook.cap" format="2">
  <outline>
    <contour>
      <point x="137" y="1001" type="qcurve"/>
      <point x="137" y="964"/>
      <point x="45" y="912"/>
      <point x="-45" y="899" type="qcurve"/>
      <point x="-69" y="946" type="line"/>
      <point x="-69" y="948" type="line"/>
      <point x="-7" y="960"/>
      <point x="39" y="978"/>
      <point x="39" y="990" type="qcurve"/>
      <point x="39" y="1002"/>
      <point x="-27" y="1020"/>
      <point x="-114" y="1033" type="qcurve"/>
      <point x="-114" y="1035" type="line"/>
      <point x="-69" y="1091" type="line"/>
      <point x="43" y="1077"/>
      <point x="137" y="1037"/>
    </contour>
    <contour>
      <point x="0" y="809" type="qcurve"/>
      <point x="46" y="809"/>
      <point x="107" y="854"/>
      <point x="123" y="900" type="qcurve"/>
      <point x="191" y="876" type="line"/>
      <point x="171" y="805"/>
      <point x="74" y="731"/>
      <point x="0" y="731" type="qcurve"/>
      <point x="-74" y="731"/>
      <point x="-171" y="808"/>
      <point x="-191" y="883" type="qcurve"/>
      <point x="-123" y="906" type="line"/>
      <point x="-106" y="857"/>
      <point x="-45" y="809"/>
    </contour>
  </outline>
</glyph>
<glyph name="brevehook" format="2">
  <outline>
    <contour>
      <point x="143" y="848" type="qcurve"/>
      <point x="143" y="808"/>
      <point x="46" y="752"/>
      <point x="-48" y="737" type="qcurve"/>
      <point x="-72" y="784" type="line"/>
      <point x="-72" y="786" type="line"/>
      <point x="-5" y="801"/>
      <point x="44" y="822"/>
      <point x="44" y="837" type="qcurve"/>
      <point x="44" y="852"/>
      <point x="-21" y="872"/>
      <point x="-100" y="883" type="qcurve"/>
      <point x="-100" y="885" type="line"/>
      <point x="-56" y="939" type="line"/>
      <point x="56" y="922"/>
      <point x="143" y="884"/>
    </contour>
    <contour>
      <point x="0" y="624" type="qcurve"/>
      <point x="43" y="624"/>
      <point x="103" y="678"/>
      <point x="123" y="735" type="qcurve"/>
      <point x="191" y="712" type="line"/>
      <point x="169" y="630"/>
      <point x="73" y="547"/>
      <point x="0" y="547" type="qcurve"/>
      <point x="-73" y="547"/>
      <point x="-169" y="630"/>
      <point x="-191" y="712" type="qcurve"/>
      <point x="-123" y="735" type="line"/>
      <point x="-103" y="678"/>
      <point x="-43" y="624"/>
    </contour>
  </outline>
</glyph>
<glyph name="brevetilde" format="2">
  <outline>
    <contour>
      <point x="-74" y="929" type="qcurve"/>
      <point x="-58" y="929"/>
      <point x="-25" y="912"/>
      <point x="13" y="884" type="qcurve"/>
      <point x="51" y="856"/>
      <point x="68" y="846"/>
      <point x="75" y="846" type="qcurve"/>
      <point x="89" y="846"/>
      <point x="114" y="887"/>
      <point x="132" y="935" type="qcurve"/>
      <point x="195" y="914" type="line"/>
      <point x="167" y="834"/>
      <point x="117" y="768"/>
      <point x="82" y="768" type="qcurve"/>
      <point x="65" y="768"/>
      <point x="32" y="785"/>
      <point x="-5" y="814" type="qcurve"/>
      <point x="-44" y="842"/>
      <point x="-60" y="851"/>
      <point x="-67" y="851" type="qcurve"/>
      <point x="-80" y="851"/>
      <point x="-105" y="812"/>
      <point x="-122" y="768" type="qcurve"/>
      <point x="-185" y="788" type="line"/>
      <point x="-158" y="865"/>
      <point x="-108" y="929"/>
    </contour>
    <contour>
      <point x="0" y="624" type="qcurve"/>
      <point x="43" y="624"/>
      <point x="103" y="678"/>
      <point x="123" y="735" type="qcurve"/>
      <point x="191" y="712" type="line"/>
      <point x="169" y="630"/>
      <point x="73" y="547"/>
      <point x="0" y="547" type="qcurve"/>
      <point x="-73" y="547"/>
      <point x="-169" y="629"/>
      <point x="-190" y="710" type="qcurve"/>
      <point x="-122" y="733" type="line"/>
      <point x="-103" y="677"/>
      <point x="-43" y="624"/>
    </contour>
  </outline>
</glyph>
<glyph name="caroncmb.cap" format="2">
  <outline>
    <contour>
      <point x="157" y="920" type="line"/>
      <point x="194" y="865" type="line"/>
      <point x="20" y="731" type="line"/>
      <point x="-19" y="731" type="line"/>
      <point x="-193" y="865" type="line"/>
      <point x="-157" y="920" type="line"/>
      <point x="0" y="818" type="line"/>
    </contour>
  </outline>
</glyph>
<glyph name="circumflexacute.cap" format="2">
  <outline>
    <contour>
      <point x="119" y="892" type="line"/>
      <point x="87" y="955" type="line"/>
      <point x="238" y="1045" type="line"/>
      <point x="279" y="969" type="line"/>
    </contour>
    <contour>
      <point x="-156" y="731" type="line"/>
      <point x="-193" y="786" type="line"/>
      <point x="-20" y="907" type="line"/>
      <point x="20" y="907" type="line"/>
      <point x="194" y="786" type="line"/>
      <point x="157" y="731" type="line"/>
      <point x="0" y="821" type="line"/>
    </contour>
  </outline>
</glyph>
<glyph name="circumflexacute" format="2">
  <outline>
    <contour>
      <point x="122" y="721" type="line"/>
      <point x="91" y="777" type="line"/>
      <point x="252" y="875" type="line"/>
      <point x="290" y="805" type="line"/>
    </contour>
    <contour>
      <point x="-146" y="547" type="line"/>
      <point x="-186" y="593" type="line"/>
      <point x="-26" y="735" type="line"/>
      <point x="26" y="735" type="line"/>
      <point x="186" y="593" type="line"/>
      <point x="146" y="547" type="line"/>
      <point x="0" y="651" type="line"/>
    </contour>
  </outline>
</glyph>
<glyph name="circumflexhook.cap" format="2">
  <outline>
    <contour>
      <point x="293" y="1003" type="qcurve"/>
      <point x="293" y="966"/>
      <point x="201" y="914"/>
      <point x="111" y="901" type="qcurve"/>
      <point x="87" y="949" type="line"/>
      <point x="87" y="951" type="line"/>
      <point x="146" y="962"/>
      <point x="194" y="980"/>
      <point x="194" y="992" type="qcurve"/>
      <point x="194" y="1005"/>
      <point x="131" y="1022"/>
      <point x="42" y="1035" type="qcurve"/>
      <point x="42" y="1037" type="line"/>
      <point x="87" y="1094" type="line"/>
      <point x="199" y="1079"/>
      <point x="293" y="1039"/>
    </contour>
    <contour>
      <point x="-156" y="731" type="line"/>
      <point x="-193" y="786" type="line"/>
      <point x="-20" y="907" type="line"/>
      <point x="20" y="907" type="line"/>
      <point x="194" y="786" type="line"/>
      <point x="157" y="731" type="line"/>
      <point x="0" y="821" type="line"/>
    </contour>
  </outline>
</glyph>
<glyph name="circumflextilde.cap" format="2">
  <outline>
    <contour>
      <point x="-68" y="1096" type="qcurve"/>
      <point x="-51" y="1096"/>
      <point x="-15" y="1078"/>
      <point x="20" y="1054" type="qcurve"/>
      <point x="51" y="1032"/>
      <point x="76" y="1019"/>
      <point x="85" y="1019" type="qcurve"/>
      <point x="98" y="1019"/>
      <point x="121" y="1055"/>
      <point x="142" y="1106" type="qcurve"/>
      <point x="205" y="1082" type="line"/>
      <point x="179" y="1006"/>
      <point x="129" y="940"/>
      <point x="92" y="940" type="qcurve"/>
      <point x="75" y="940"/>
      <point x="40" y="957"/>
      <point x="5" y="982" type="qcurve"/>
      <point x="-27" y="1004"/>
      <point x="-52" y="1017"/>
      <point x="-61" y="1017" type="qcurve"/>
      <point x="-73" y="1017"/>
      <point x="-95" y="982"/>
      <point x="-115" y="935" type="qcurve"/>
      <point x="-179" y="959" type="line"/>
      <point x="-153" y="1032"/>
      <point x="-105" y="1096"/>
    </contour>
    <contour>
      <point x="-156" y="731" type="line"/>
      <point x="-193" y="786" type="line"/>
      <point x="-20" y="907" type="line"/>
      <point x="20" y="907" type="line"/>
      <point x="194" y="786" type="line"/>
      <point x="157" y="731" type="line"/>
      <point x="0" y="821" type="line"/>
    </contour>
  </outline>
</glyph>
<glyph name="dieresisacute" format="2">
  <outline>
    <contour>
      <point x="-65" y="712" type="line"/>
      <point x="-95" y="772" type="line"/>
      <point x="140" y="893" type="line"/>
      <point x="176" y="817" type="line"/>
    </contour>
    <contour>
      <point x="-52" y="622" type="qcurve"/>
      <point x="-52" y="596"/>
      <point x="-86" y="567"/>
      <point x="-117" y="567" type="qcurve"/>
      <point x="-147" y="567"/>
      <point x="-180" y="595"/>
      <point x="-180" y="622" type="qcurve"/>
      <point x="-180" y="647"/>
      <point x="-145" y="678"/>
      <point x="-116" y="678" type="qcurve"/>
      <point x="-85" y="678"/>
      <point x="-52" y="649"/>
    </contour>
    <contour>
      <point x="181" y="622" type="qcurve"/>
      <point x="181" y="596"/>
      <point x="146" y="567"/>
      <point x="115" y="567" type="qcurve"/>
      <point x="85" y="567"/>
      <point x="52" y="595"/>
      <point x="52" y="622" type="qcurve"/>
      <point x="52" y="647"/>
      <point x="87" y="678"/>
      <point x="116" y="678" type="qcurve"/>
      <point x="147" y="678"/>
      <point x="181" y="649"/>
    </contour>
  </outline>
</glyph>
<glyph name="dieresiscaron" format="2">
  <outline>
    <contour>
      <point x="146" y="905" type="line"/>
      <point x="186" y="858" type="line"/>
      <point x="20" y="716" type="line"/>
      <point x="-20" y="716" type="line"/>
      <point x="-186" y="858" type="line"/>
      <point x="-146" y="905" type="line"/>
      <point x="0" y="800" type="line"/>
    </contour>
    <contour>
      <point x="-52" y="622" type="qcurve"/>
      <point x="-52" y="596"/>
      <point x="-86" y="567"/>
      <point x="-117" y="567" type="qcurve"/>
      <point x="-147" y="567"/>
      <point x="-180" y="595"/>
      <point x="-180" y="622" type="qcurve"/>
      <point x="-180" y="647"/>
      <point x="-145" y="678"/>
      <point x="-116" y="678" type="qcurve"/>
      <point x="-85" y="678"/>
      <point x="-52" y="649"/>
    </contour>
    <contour>
      <point x="181" y="622" type="qcurve"/>
      <point x="181" y="596"/>
      <point x="146" y="567"/>
      <point x="115" y="567" type="qcurve"/>
      <point x="85" y="567"/>
      <point x="52" y="595"/>
      <point x="52" y="622" type="qcurve"/>
      <point x="52" y="647"/>
      <point x="87" y="678"/>
      <point x="116" y="678" type="qcurve"/>
      <point x="147" y="678"/>
      <point x="181" y="649"/>
    </contour>
  </outline>
</glyph>
<glyph name="dotaccentcmb.cap" format="2">
  <outline>
    <contour>
      <point x="71" y="819" type="qcurve"/>
      <point x="71" y="787"/>
      <point x="34" y="751"/>
      <point x="0" y="751" type="qcurve"/>
      <point x="-33" y="751"/>
      <point x="-70" y="786"/>
      <point x="-70" y="819" type="qcurve"/>
      <point x="-70" y="850"/>
      <point x="-31" y="887"/>
      <point x="1" y="887" type="qcurve"/>
      <point x="35" y="887"/>
      <point x="71" y="852"/>
    </contour>
  </outline>
</glyph>
<glyph name="eight.den" format="2">
  <advance width="614"/>
  <outline>
    <contour>
      <point x="460" y="98" type="qcurve"/>
      <point x="460" y="47"/>
      <point x="374" y="-15"/>
      <point x="306" y="-15" type="qcurve"/>
      <point x="239" y="-15"/>
      <point x="154" y="47"/>
      <point x="154" y="97" type="qcurve"/>
      <point x="154" y="131"/>
      <point x="203" y="183"/>
      <point x="244" y="195" type="qcurve"/>
      <point x="244" y="197" type="line"/>
      <point x="207" y="208"/>
      <point x="166" y="255"/>
      <point x="166" y="287" type="qcurve"/>
      <point x="166" y="336"/>
      <point x="244" y="395"/>
      <point x="308" y="395" type="qcurve"/>
      <point x="371" y="395"/>
      <point x="448" y="336"/>
      <point x="448" y="288" type="qcurve"/>
      <point x="448" y="256"/>
      <point x="407" y="209"/>
      <point x="371" y="198" type="qcurve"/>
      <point x="371" y="196" type="line"/>
      <point x="412" y="184"/>
      <point x="460" y="131"/>
    </contour>
    <contour>
      <point x="239" y="279" type="qcurve"/>
      <point x="239" y="254"/>
      <point x="277" y="222"/>
      <point x="307" y="222" type="qcurve"/>
      <point x="337" y="222"/>
      <point x="375" y="254"/>
      <point x="375" y="280" type="qcurve"/>
      <point x="375" y="306"/>
      <point x="339" y="336"/>
      <point x="308" y="336" type="qcurve"/>
      <point x="277" y="336"/>
      <point x="239" y="305"/>
    </contour>
    <contour>
      <point x="229" y="106" type="qcurve"/>
      <point x="229" y="78"/>
      <point x="272" y="43"/>
      <point x="307" y="43" type="qcurve"/>
      <point x="342" y="43"/>
      <point x="385" y="78"/>
      <point x="385" y="107" type="qcurve"/>
      <point x="385" y="135"/>
      <point x="342" y="168"/>
      <point x="307" y="168" type="qcurve"/>
      <point x="272" y="168"/>
      <point x="229" y="134"/>
    </contour>
  </outline>
</glyph>
<glyph name="fracbar" format="2">
  <advance width="614"/>
  <outline>
    <contour>
      <point x="614" y="427" type="line"/>
      <point x="317" y="202" type="line"/>
      <point x="60" y="-70" type="line"/>
      <point x="0" y="-1" type="line"/>
      <point x="299" y="224" type="line"/>
      <point x="554" y="496" type="line"/>
    </contour>
  </outline>
</glyph>
<glyph name="hookcmb.cap" format="2">
  <outline>
    <contour>
      <point x="135" y="845" type="qcurve"/>
      <point x="135" y="804"/>
      <point x="25" y="746"/>
      <point x="-81" y="731" type="qcurve"/>
      <point x="-105" y="778" type="line"/>
      <point x="-105" y="780" type="line"/>
      <point x="-22" y="797"/>
      <point x="37" y="819"/>
      <point x="37" y="834" type="qcurve"/>
      <point x="37" y="850"/>
      <point x="-33" y="873"/>
      <point x="-115" y="885" type="qcurve"/>
      <point x="-115" y="888" type="line"/>
      <point x="-71" y="944" type="line"/>
      <point x="40" y="930"/>
      <point x="135" y="885"/>
    </contour>
  </outline>
</glyph>
<glyph name="hungarumlautcmb.cap" format="2">
  <outline>
    <contour>
      <point x="-120" y="730" type="line"/>
      <point x="-172" y="781" type="line"/>
      <point x="-47" y="922" type="line"/>
      <point x="19" y="861" type="line"/>
    </contour>
    <contour>
      <point x="119" y="730" type="line"/>
      <point x="67" y="781" type="line"/>
      <point x="191" y="922" type="line"/>
      <point x="258" y="861" type="line"/>
    </contour>
  </outline>
</glyph>
<glyph name="macroncmb.cap" format="2">
  <outline>
    <contour>
      <point x="167" y="771" type="line"/>
      <point x="-167" y="771" type="line"/>
      <point x="-167" y="853" type="line"/>
      <point x="167" y="853" type="line"/>
    </contour>
  </outline>
</glyph>
<glyph name="middotcat.cap" format="2">
  <advance width="614"/>
  <outline>
    <contour>
      <point x="317" y="376" type="qcurve"/>
      <point x="317" y="331"/>
      <point x="276" y="282"/>
      <point x="238" y="282" type="qcurve"/>
      <point x="199" y="282"/>
      <point x="160" y="329"/>
      <point x="160" y="375" type="qcurve"/>
      <point x="160" y="419"/>
      <point x="201" y="468"/>
      <point x="238" y="468" type="qcurve"/>
      <point x="278" y="468"/>
      <point x="317" y="422"/>
    </contour>
  </outline>
</glyph>
<glyph name="middotcat" format="2">
  <advance width="614"/>
  <outline>
    <contour>
      <point x="379" y="361" type="qcurve"/>
      <point x="379" y="316"/>
      <point x="338" y="268"/>
      <point x="300" y="268" type="qcurve"/>
      <point x="262" y="268"/>
      <point x="222" y="315"/>
      <point x="222" y="360" type="qcurve"/>
      <point x="222" y="404"/>
      <point x="264" y="454"/>
      <point x="301" y="454" type="qcurve"/>
      <point x="340" y="454"/>
      <point x="379" y="408"/>
    </contour>
  </outline>
</glyph>
<glyph name="nine.den" format="2">
  <advance width="614"/>
  <outline>
    <contour>
      <point x="459" y="254" type="qcurve"/>
      <point x="459" y="203"/>
      <point x="411" y="113"/>
      <point x="349" y="50" type="qcurve"/>
      <point x="299" y="0" type="line"/>
      <point x="200" y="0" type="line"/>
      <point x="200" y="1" type="line"/>
      <point x="280" y="76" type="line"/>
      <point x="297" y="91"/>
      <point x="325" y="122"/>
      <point x="337" y="138" type="qcurve"/>
      <point x="326" y="135"/>
      <point x="302" y="131"/>
      <point x="290" y="131" type="qcurve"/>
      <point x="226" y="131"/>
      <point x="153" y="198"/>
      <point x="153" y="258" type="qcurve"/>
      <point x="153" y="319"/>
      <point x="241" y="395"/>
      <point x="311" y="395" type="qcurve"/>
      <point x="377" y="395"/>
      <point x="459" y="317"/>
    </contour>
    <contour>
      <point x="369" y="193" type="qcurve"/>
      <point x="375" y="207"/>
      <point x="381" y="237"/>
      <point x="381" y="251" type="qcurve"/>
      <point x="381" y="288"/>
      <point x="341" y="331"/>
      <point x="308" y="331" type="qcurve"/>
      <point x="273" y="331"/>
      <point x="232" y="291"/>
      <point x="232" y="257" type="qcurve"/>
      <point x="232" y="223"/>
      <point x="273" y="184"/>
      <point x="310" y="184" type="qcurve"/>
      <point x="327" y="184"/>
      <point x="356" y="188"/>
    </contour>
  </outline>
</glyph>
<glyph name="one.den" format="2">
  <advance width="614"/>
  <outline>
    <contour>
      <point x="453" y="0" type="line"/>
      <point x="177" y="0" type="line"/>
      <point x="177" y="66" type="line"/>
      <point x="280" y="66" type="line"/>
      <point x="280" y="281" type="line"/>
      <point x="177" y="233" type="line"/>
      <point x="177" y="310" type="line"/>
      <point x="328" y="380" type="line"/>
      <point x="357" y="380" type="line"/>
      <point x="357" y="66" type="line"/>
      <point x="453" y="66" type="line"/>
    </contour>
  </outline>
</glyph>
<glyph name="seven.den" format="2">
  <advance width="614"/>
  <outline>
    <contour>
      <point x="445" y="313" type="line"/>
      <point x="284" y="0" type="line"/>
      <point x="196" y="0" type="line"/>
      <point x="196" y="2" type="line"/>
      <point x="370" y="312" type="line"/>
      <point x="370" y="314" type="line"/>
      <point x="150" y="314" type="line"/>
      <point x="150" y="380" type="line"/>
      <point x="445" y="380" type="line"/>
    </contour>
  </outline>
</glyph>
<glyph name="three.den" format="2">
  <advance width="614"/>
  <outline>
    <contour>
      <point x="340" y="316" type="line"/>
      <point x="163" y="316" type="line"/>
      <point x="163" y="380" type="line"/>
      <point x="439" y="380" type="line"/>
      <point x="439" y="330" type="line"/>
      <point x="334" y="232" type="line"/>
      <point x="334" y="230" type="line"/>
      <point x="396" y="228"/>
      <point x="462" y="173"/>
      <point x="462" y="125" type="qcurve"/>
      <point x="462" y="66"/>
      <point x="358" y="2"/>
      <point x="252" y="-5" type="qcurve"/>
      <point x="175" y="-10" type="line"/>
      <point x="168" y="57" type="line"/>
      <point x="245" y="63" type="line"/>
      <point x="319" y="69"/>
      <point x="385" y="98"/>
      <point x="385" y="125" type="qcurve"/>
      <point x="385" y="149"/>
      <point x="343" y="172"/>
      <point x="300" y="172" type="qcurve"/>
      <point x="288" y="172"/>
      <point x="260" y="169"/>
      <point x="241" y="166" type="qcurve"/>
      <point x="227" y="204" type="line"/>
      <point x="340" y="314" type="line"/>
    </contour>
  </outline>
</glyph>
<glyph name="two.den" format="2">
  <advance width="614"/>
  <outline>
    <contour>
      <point x="460" y="0" type="line"/>
      <point x="163" y="0" type="line"/>
      <point x="163" y="57" type="line"/>
      <point x="290" y="167" type="line"/>
      <point x="336" y="207"/>
      <point x="372" y="252"/>
      <point x="372" y="277" type="qcurve"/>
      <point x="372" y="299"/>
      <point x="345" y="324"/>
      <point x="321" y="324" type="qcurve"/>
      <point x="293" y="324"/>
      <point x="237" y="294"/>
      <point x="194" y="257" type="qcurve"/>
      <point x="156" y="313" type="line"/>
      <point x="207" y="356"/>
      <point x="285" y="392"/>
      <point x="328" y="392" type="qcurve"/>
      <point x="382" y="392"/>
      <point x="451" y="333"/>
      <point x="451" y="285" type="qcurve"/>
      <point x="451" y="245"/>
      <point x="407" y="182"/>
      <point x="352" y="137" type="qcurve"/>
      <point x="268" y="68" type="line"/>
      <point x="268" y="66" type="line"/>
      <point x="460" y="66" type="line"/>
    </contour>
  </outline>
</glyph>
<glyph name="zero.den" format="2">
  <advance width="614"/>
  <outline>
    <contour>
      <point x="308" y="395" type="qcurve"/>
      <point x="384" y="395"/>
      <point x="463" y="291"/>
      <point x="463" y="191" type="qcurve"/>
      <point x="463" y="90"/>
      <point x="383" y="-15"/>
      <point x="306" y="-15" type="qcurve"/>
      <point x="230" y="-15"/>
      <point x="151" y="88"/>
      <point x="151" y="189" type="qcurve"/>
      <point x="151" y="290"/>
      <point x="231" y="395"/>
    </contour>
    <contour>
      <point x="307" y="326" type="qcurve"/>
      <point x="263" y="326"/>
      <point x="224" y="262"/>
      <point x="224" y="190" type="qcurve"/>
      <point x="224" y="181"/>
      <point x="225" y="162"/>
      <point x="226" y="151" type="qcurve"/>
      <point x="378" y="278" type="line"/>
      <point x="369" y="303"/>
      <point x="335" y="326"/>
    </contour>
    <contour>
      <point x="307" y="53" type="qcurve"/>
      <point x="351" y="53"/>
      <point x="390" y="118"/>
      <point x="390" y="190" type="qcurve"/>
      <point x="390" y="198"/>
      <point x="389" y="216"/>
      <point x="388" y="230" type="qcurve"/>
      <point x="236" y="101" type="line"/>
      <point x="245" y="76"/>
      <point x="280" y="53"/>
    </contour>
  </outline>
</glyph>
